<svg preserveAspectRatio="none" width="100%" height="100%" overflow="visible" style="display: block;" viewBox="0 0 680 416" fill="none" xmlns="http://www.w3.org/2000/svg">
<path id="Vector" opacity="0.2" d="M679.984 0L676.676 416H0V15.872C12.0647 43.984 34.0687 66.576 57.2872 86.48C83.3821 108.848 126.208 137.824 161.954 123.024C187.346 112.512 204.684 84.24 229.373 70.336C257.225 54.624 288.993 45.776 321 45.376C372.455 44.752 423.829 66.032 459.8 102.88C470.954 114.304 482.171 127.968 497.975 130.16C516.224 132.672 531.373 120.016 544.38 109.072C563.204 93.248 582.14 77.536 601.076 61.84C610.552 54 620.012 46.144 629.488 38.288C638.341 30.928 646.554 22.944 655.711 15.936C663.397 10.048 671.802 5.136 680 0L679.984 0Z" fill="white"/>
</svg>
