<svg width="714" height="486" viewBox="0 0 714 486" fill="none" xmlns="http://www.w3.org/2000/svg">
<path opacity="0.15" d="M714 4.08162C714 -5.97812 672.359 5.38976 668.012 8.07972C628.691 32.4368 596.94 90.0501 574.305 129.11C553.807 164.503 528.686 208.095 480.801 190.998C464.299 185.102 450.154 174.102 437.005 162.513C431.498 157.668 425.973 152.583 419.195 149.745C396.008 140.036 358.326 157.981 346.594 178.764C341.253 188.215 339.872 199.307 337.699 209.938C326.814 263.221 296.849 318.145 240.953 333.345C214.653 340.493 186.861 338.264 159.604 338.172C105.66 337.969 22.027 363.303 0 419H713.963C713.963 419 713.963 4.21059 713.963 4.08162H714Z" fill="white"/>
<g filter="url(#filter0_f_3021_1671)">
<rect x="406" y="214" width="208" height="208" rx="104" fill="white" fill-opacity="0.2"/>
</g>
<path d="M301.143 209.074C293.61 207.453 286.336 204.803 279.526 201.197C263.255 192.361 252.887 179.093 248.411 161.052C245.803 150.837 244.371 140.358 244.143 129.818C243.961 117.614 249.993 109.265 260.148 103.397C277.548 93.3894 295.726 84.8005 314.507 77.7138C317.032 76.7545 317.974 76.2687 316.678 73.2093C312.746 63.8852 315.518 56.0873 323.62 52.088C327.869 49.9936 332.268 50.5407 335.682 53.7483C339.748 57.6904 342.726 62.6165 344.327 68.0485C344.96 70.0086 345.859 70.5488 347.921 70.4153C364.768 69.5256 381.253 71.537 397.194 77.2265C399.003 77.8723 400.033 77.6787 401.198 76.1972C405.06 71.1752 409.693 66.7959 414.924 63.2218C424.696 56.7049 432.821 58.5683 438.736 68.7345C442.262 74.5645 443.381 81.5377 441.855 88.1777C441.303 90.6534 440.204 92.9739 438.637 94.9684C437.07 96.963 435.076 98.5808 432.801 99.7028C431.145 100.59 430.862 101.343 432.04 103.031C439.135 113.19 444.696 124.206 450.248 135.23C450.991 136.716 451.67 137.231 453.575 137.084C461.464 136.489 469.123 138.148 476.607 140.498C506.49 149.87 529.81 168.086 547.537 193.625C551.625 199.455 555.067 205.712 557.8 212.286C558.026 212.976 558.407 213.604 558.914 214.123C559.421 214.642 560.041 215.038 560.725 215.28C581.812 223.05 594.486 238.446 600.76 259.602C602.217 264.428 602.944 269.444 602.918 274.485C602.891 277.262 602.593 280.145 599.713 281.677C597.007 283.105 594.732 281.764 592.617 280.198C587.829 276.642 582.752 273.616 576.946 272.068C575.775 271.759 574.042 270.866 573.353 272.029C572.49 273.488 571.549 275.225 572.809 277.276C573.976 279.192 574.47 281.497 575.469 283.534C577.783 288.292 576.953 292.272 572.902 295.642C572.051 296.365 570.996 297.071 572.887 298.167C581.776 303.506 586.036 311.811 587.437 321.777C589.176 334.202 586.819 346.168 583.168 357.973C582.35 360.824 581.237 363.582 579.847 366.202C578.486 368.626 576.365 370.069 573.695 369.005C559.983 363.465 545.914 358.426 534.698 348.289C528.109 342.329 524.185 334.764 523.958 325.653C523.914 323.852 523.862 322.739 521.36 323.209C517.83 323.865 514.876 322.199 512.503 319.433C510.949 323.235 510.93 327.492 512.45 331.308C515.795 340.493 518.446 349.916 520.379 359.498C520.926 362.512 520.152 364.445 517.343 365.674C514.273 367.009 511.292 368.604 508.182 369.833C506.644 370.445 506.032 371.155 506.109 372.833C506.66 383.243 504.522 393.619 499.901 402.963C499.446 403.885 499.075 404.551 500.3 405.372C504.271 408.07 506.005 412.171 506.43 416.696C507.133 424.126 509.03 431.004 513.426 437.159C515.075 439.47 515.403 442.071 513.374 444.528C513.024 445.021 512.546 445.409 511.992 445.65C511.438 445.891 510.828 445.976 510.229 445.896C507.958 445.387 507.52 446.096 507.503 448.352C507.449 453.511 502.954 455.609 498.526 452.597C497.157 451.694 496.218 450.976 494.386 451.976C492.555 452.975 490.64 451.782 489.145 450.291C483.043 444.188 479.23 436.814 477.073 428.553C476.776 427.428 476.997 426.171 474.998 426.8C457.451 432.504 442.19 427.305 428.118 416.746C425.109 414.522 422.349 411.98 419.886 409.164C418.483 412.598 417.757 415.881 415.942 418.728C415.751 419.02 415.668 419.37 415.706 419.716C415.745 420.063 415.902 420.386 416.152 420.63C419.36 424.621 419.919 429.442 420.327 434.274C420.854 439.587 422.064 444.81 423.929 449.812C424.65 451.859 425.271 453.968 424.283 456.177C423.414 458.11 422.104 459.612 419.823 459.411C418.132 459.274 417.848 459.939 417.786 461.384C417.695 463.871 416.942 466.123 414.372 467.142C411.672 468.213 409.552 466.901 407.718 465.105C407.478 464.802 407.162 464.568 406.802 464.427C406.442 464.286 406.05 464.244 405.668 464.305C402.124 464.936 400.046 462.922 398.567 460.164C394.945 453.579 392.374 446.468 390.948 439.089C390.708 437.754 390.833 436.41 388.595 436.751C369.741 439.632 355.139 431.984 343.167 418.087C337.024 410.848 332.111 402.65 328.623 393.82C328.419 393.124 327.993 392.514 327.411 392.083C326.828 391.651 326.121 391.421 325.396 391.428C321.855 391.14 318.347 390.444 314.799 390.156C312.202 389.945 310.951 388.774 310.469 386.216C309.008 377.655 308.011 369.022 307.484 360.353C307.241 357.007 307.101 353.653 306.985 350.302C306.931 349.321 306.569 348.383 305.951 347.62C302.636 342.995 301.528 338.003 303.768 332.561C303.929 332.21 304.019 331.83 304.033 331.444C304.046 331.058 303.983 330.672 303.848 330.311C302.387 326.211 301.53 321.921 301.301 317.575C301.33 317.184 301.237 316.794 301.037 316.457C300.836 316.121 300.536 315.854 300.179 315.693C287.12 309.232 280.106 298.074 276.091 284.601C276.029 284.171 275.87 283.761 275.624 283.403C275.378 283.045 275.053 282.749 274.674 282.537C266.715 278.327 264.817 270.982 264.759 262.812C264.73 258.588 265.59 254.524 268.383 251.155C269.259 250.109 270.292 248.807 271.481 248.5C274.668 247.681 275.433 245.383 276.334 242.676C280.752 229.421 288.971 218.913 300.145 210.641C300.586 210.404 301.058 210.231 301.548 210.129L301.143 209.074Z" fill="#201E23"/>
<path d="M553.785 414.154C554.301 408.771 556.53 404.826 562.273 403.557C563.948 403.12 565.71 403.147 567.371 403.635C569.033 404.123 570.53 405.053 571.703 406.327C572.925 407.566 574.003 407.939 575.581 407.33C579.979 405.644 584.119 406.55 587.261 409.799C590.403 413.048 592.024 417.187 590.232 421.984C589.485 423.927 588.139 425.582 586.388 426.709C584.63 427.873 584.01 428.971 584.555 431.043C584.84 432.119 584.442 433.409 584.349 434.558C583.587 437.506 581.382 438.808 578.673 439.491C575.641 440.32 572.411 440.006 569.595 438.61C566.779 437.213 564.575 434.831 563.4 431.915C562.698 430.227 561.537 429.602 559.991 429.025C554.197 426.844 551.142 419.397 553.785 414.154Z" fill="white"/>
<path d="M553.783 414.155C553.174 418.54 553.686 422.574 556.917 425.996C558.069 427.214 559.332 428.251 560.876 428.353C562.969 428.523 563.637 429.559 564.195 431.37C565.637 436.049 569.354 438.355 573.88 438.904C577.951 439.393 581.924 438.551 584.355 434.559C584.019 439.284 578.249 444.7 572.599 444.439C566.807 444.167 561.834 442.995 559.34 437.027C558.681 435.39 557.161 435.868 555.977 435.82C548.657 435.55 543.533 428.513 546.594 420.755C547.855 417.523 550.716 415.648 553.783 414.155Z" fill="#DEE0E2"/>
<path d="M633.708 367.016C620.672 363.787 609.344 356.785 602.773 343.39C601.604 341.006 600.247 338.702 599.87 336.026C599.768 335.226 599.347 334.17 600.132 333.87C601.171 333.463 601.659 334.572 601.909 335.392C603.557 340.365 606.541 344.48 609.948 348.368C616.891 356.218 625.917 360.261 635.955 362.359C637.451 362.67 639.346 362.452 638.911 364.975C638.534 366.797 637.317 367.443 633.708 367.016Z" fill="#F7FBFA"/>
<path d="M590.908 389.767C592.499 388.312 594.223 387.272 596.49 388.224C597.165 388.404 597.884 388.318 598.498 387.983C602.773 386.54 605.473 387.227 606.843 390.158C608.398 393.452 607.159 397.2 603.837 399.188C600.016 401.966 599.086 401.907 595.216 398.947C593.354 397.515 591.843 395.678 590.797 393.575C590.147 392.303 589.801 391.008 590.908 389.767Z" fill="#FDFEFE"/>
<path d="M601.882 445.522C603.335 444.998 604.88 444.799 606.189 443.796C608.443 442.071 611.614 442.043 613.457 443.531C615.991 445.582 616.455 448.17 614.872 451.376C614.701 451.726 614.568 452.096 614.42 452.448C612.533 453.901 610.154 454.559 607.788 454.283C605.422 454.007 603.258 452.817 601.757 450.969C600.257 449.057 600.003 447.302 601.882 445.522Z" fill="#FEFEFE"/>
<path d="M590.906 389.768C590.716 393.38 592.872 395.701 595.313 397.927C597.908 400.308 600.565 401.521 603.836 399.189C603.095 400.098 602.56 401.157 602.269 402.293C602.087 403.272 601.576 404.16 600.821 404.809C600.065 405.458 599.11 405.829 598.114 405.86C595.79 406.004 593.795 405.51 593.001 402.895C592.602 401.776 591.781 400.856 590.714 400.333C587.06 398.128 587.195 392.263 590.906 389.768Z" fill="#DCE1E2"/>
<path d="M601.879 445.529C600.415 449.521 603.664 453.594 608.367 453.421C610.414 453.221 612.447 452.899 614.457 452.458C614.499 454.568 613.914 456.113 611.762 457.158C609.42 458.298 607.64 457.987 605.919 456.264C605.629 455.926 605.271 455.654 604.869 455.464C604.467 455.275 604.029 455.172 603.584 455.163C601.028 455.233 599.662 453.53 599.265 451.494C598.805 449.152 599.279 446.736 601.879 445.529Z" fill="#D5E1E2"/>
<path d="M394.252 82.7557C395.779 82.6737 396.198 83.175 395.552 84.6986C395.072 85.8318 394.549 87.2941 396.066 88.1221C397.583 88.9501 398.752 87.9125 399.704 86.9127C401.539 84.9945 403.264 82.9723 405.039 81.0097C408.276 78.7857 410.841 75.7784 413.929 73.3521C417.152 70.818 420.854 69.3127 424.519 67.6857C426.663 66.743 428.653 67.4906 430.608 68.3859C435.676 73.177 437.072 79.2065 436.138 85.8388C435.329 91.6023 431.091 94.4421 426.002 96.2466C424.436 96.8085 422.767 97.069 421.472 98.2944C419.613 100.116 419.975 102.877 422.301 103.114C425.983 103.413 426.955 106.168 428.351 108.689C429.614 112.633 432.12 116.012 434.182 119.498C436.967 124.207 438.935 129.238 441.314 134.08C444.504 140.548 448.151 146.744 451.773 152.962C448.802 154.535 448.509 155.414 449.84 158.627C452.804 165.726 455.718 172.853 458.747 179.941C459.469 181.584 459.318 182.657 457.902 183.999C449.927 191.521 440.906 197.85 431.119 202.789C419.706 208.452 410.051 216.65 401.936 226.556C398.094 231.25 392.797 234.059 387.862 237.294C376.774 244.512 365.509 251.462 354.371 258.612C352.6 259.743 351.453 259.722 349.751 258.356C341.544 251.852 333.914 244.654 326.944 236.839C326.307 235.425 327.475 234.887 328.264 234.238C329.942 233.016 331.756 231.991 333.668 231.184C343.909 226.02 352.356 218.643 360.282 210.574C360.696 210.149 361.06 209.679 361.37 209.174C362.875 206.73 362.345 205.649 359.497 205.22C353.714 204.355 347.863 204.917 342.051 204.414C330.308 203.397 318.825 200.944 307.389 198.298C293.883 195.267 280.864 190.372 268.707 183.753C267.318 183.001 266.002 182.12 264.778 181.121C263.134 179.816 262.249 177.938 260.567 175.822C266.004 176.263 269.981 174.495 273.008 170.583C274.051 169.242 274.739 170.723 275.373 171.202C279.044 174.082 282.849 176.68 287.652 177.22C292.142 177.719 296.067 176.589 299.202 173.287C300.822 171.581 300.372 170.681 297.865 170.24C296.878 169.915 295.903 170.224 294.929 170.311C294.131 170.389 293.347 170.293 292.899 169.465C292.717 169.105 292.657 168.696 292.728 168.299C292.799 167.902 292.997 167.538 293.292 167.263C297.184 163.318 299 158.112 300.567 153.155C302.134 148.197 304.724 143.798 305.937 138.812C306.272 137.061 306.88 135.373 307.737 133.81C311.266 127.998 313.487 121.518 317.366 115.877C320.001 112.012 319.39 107.638 318.119 103.583C316.564 98.6412 314.144 94.0095 311.985 89.2804C312.28 88.755 312.758 88.3567 313.327 88.1617C326.946 82.559 340.896 78.5197 355.813 78.3841C367.055 78.2512 378.021 80.4481 389.112 81.5781C390.912 81.7559 392.354 83.2114 394.252 82.7557Z" fill="#EC9A6B"/>
<path d="M465.949 264.293C466.549 263.043 467.37 261.708 466.032 260.538C464.693 259.368 463.125 259.859 461.676 260.723C457.122 263.458 453.116 267.045 448.197 269.204C436.864 275.341 424.619 277.491 411.895 277.345C408.831 277.259 405.773 277.011 402.736 276.602C401.355 276.435 399.913 276.254 399.565 274.484C400.427 270.58 400.38 266.53 399.425 262.648C400.113 260.613 401.935 261.006 403.415 260.912C409.82 260.495 416.078 258.812 421.828 255.96C429.454 252.347 435.628 246.253 439.341 238.675C439.619 238.278 439.904 237.881 440.176 237.467C441.078 236.107 441.377 234.666 440.046 233.497C438.57 232.165 437.073 232.757 435.78 233.856C434.487 234.954 433.487 236.045 432.345 237.141C426.604 242.789 419.549 246.271 412.263 249.386C411.626 249.555 410.978 249.679 410.324 249.76C414.21 246.376 418.079 244.481 421.627 242.147C437.365 231.798 453.052 221.39 467.064 208.699C468.415 207.47 469.037 207.703 469.833 209.32C481.744 233.532 492.289 258.274 498.775 284.532C499.668 288.161 500.045 291.914 500.8 295.587C501.196 297.543 500.454 298.386 498.664 299.064C487.14 303.459 475.217 304.962 462.949 304.37C454.248 304.06 445.638 302.489 437.389 299.706C436.911 298.17 438.273 297.885 439.099 297.469C444.334 294.702 449.137 291.186 453.355 287.031C459.671 280.645 464.571 273.464 465.949 264.293Z" fill="#F1852C"/>
<path d="M312.801 308.804C320.825 303.824 328.765 298.703 336.885 293.889C350.039 286.111 363.31 278.539 376.527 270.86C377.208 270.464 377.799 269.918 378.904 270.063C378.521 276.828 383.071 280.104 388.309 282.802C388.758 282.988 389.166 283.263 389.506 283.611C389.847 283.958 390.114 284.371 390.291 284.824C394.991 297.473 404.256 305.979 415.592 312.586C421.863 316.144 428.593 318.823 435.594 320.545C435.871 320.624 436.124 320.769 436.332 320.968C436.539 321.168 436.695 321.414 436.785 321.688C432.478 322.344 428.18 323.096 423.859 323.64C412.415 325.087 400.956 326.43 389.515 327.853C386.794 328.195 384.736 328.186 382.748 325.356C379.424 320.548 373.766 319.605 368.51 322.196C367.678 322.71 366.698 322.929 365.727 322.818C360.615 321.991 357.242 324.505 354.889 328.71C354.324 329.717 353.876 330.56 352.551 330.587C339.532 330.861 326.506 331.894 313.496 330.387C313.149 330.111 312.86 329.769 312.647 329.381C312.433 328.992 312.3 328.565 312.254 328.124C312.09 321.664 311.26 315.197 312.801 308.804Z" fill="#F18427"/>
<path d="M563.226 276.189C553.83 285.191 542.838 291.807 531.254 297.528C529.932 297.705 529.535 296.652 529.202 295.777C525.818 287.02 521.215 278.837 517.064 270.454C513.268 262.772 509.168 255.224 505.002 247.719C504.374 246.575 502.919 245.174 505.29 244.17C508.97 244.793 512.45 246.121 516.229 246.499C530.144 247.874 543.382 235.057 543.406 223.243C543.416 219.901 543.9 216.567 543.076 213.253C542.946 212.878 542.896 212.48 542.928 212.084C542.96 211.689 543.074 211.304 543.263 210.955C545.049 210.221 545.847 211.514 546.463 212.712C552.257 224.076 556.601 236.123 559.393 248.57C561.244 256.356 562.675 264.237 563.678 272.178C563.97 273.529 563.811 274.937 563.226 276.189Z" fill="#DFE2E1"/>
<path d="M385.999 374.308C386.166 376.341 387.183 377.184 389.304 377.103C416.973 375.983 444.47 372.211 471.417 365.837C478.903 364.069 486.244 361.742 493.663 359.723C494.326 359.569 494.997 359.449 495.672 359.364C497.417 361.089 498.112 365.795 496.916 367.844C485.94 372.41 474.486 375.448 462.953 378.202C443.414 382.873 423.558 385.419 403.548 386.725C378.53 388.362 353.569 387.729 328.598 385.758C328.209 385.708 327.823 385.634 327.443 385.537C322.158 384.792 320.723 383.638 320 379.658C319.683 377.914 320.094 377.045 322.105 377.24C327.128 377.711 332.161 378.056 337.197 378.465C332.995 378.124 328.794 377.782 324.608 377.443C322.766 377.183 320.895 377.202 319.059 377.499C317.736 377.796 316.268 377.637 315.401 376.22C320.609 376.548 325.82 376.844 331.027 377.203C340.785 377.885 350.541 378.391 360.325 378.259C361.245 378.247 362.573 378.283 362.707 377.51C363.392 373.55 368.425 373.222 369.226 369.208C369.942 365.56 371.391 362.042 372.048 358.349C373.367 357.712 373.853 358.837 374.323 359.588C377.057 363.807 380.315 367.661 384.021 371.059C384.949 371.953 385.63 373.073 385.999 374.308Z" fill="#FAB83C"/>
<path d="M494.87 356.07C488.041 358.581 481.068 360.681 473.988 362.359C460.253 365.884 446.303 368.516 432.227 370.239C423.135 371.338 414.036 372.418 404.932 373.48C404.14 373.523 403.347 373.522 402.556 373.477C401.28 373.492 401.014 372.964 401.511 371.808C402.319 369.887 403.426 368.106 404.791 366.531C408.222 362.604 407.619 359.989 402.892 357.918C399.565 356.468 396.044 355.35 393.621 352.413C394.496 351.384 395.776 351.519 396.924 351.438C410.138 350.515 423.317 349.256 436.463 347.52C453.417 345.316 470.368 343.144 486.955 338.828C491.098 337.746 491.861 338.299 492.99 342.541C493.891 345.98 494.275 349.543 495.369 352.943C495.587 353.459 495.656 354.025 495.567 354.578C495.479 355.131 495.237 355.648 494.87 356.07Z" fill="#F1842A"/>
<path d="M478.417 419.321C470.354 422.832 462.048 424.178 453.312 422.415C442.402 420.215 433.545 414.293 425.643 406.753C423.634 405.015 421.837 403.045 420.29 400.885C419.863 398.926 421.456 399.198 422.469 399.019C425.68 398.488 428.965 398.509 432.212 398.226C452.813 396.335 473.076 391.749 492.483 384.585C494.77 383.734 497.014 382.047 499.739 383.02C499.081 390.669 496.546 398.036 492.358 404.47C491.649 405.601 491.135 406.668 491.469 408.01C491.596 408.487 491.615 408.987 491.525 409.473C491.435 409.958 491.238 410.418 490.948 410.818C488.664 413.907 485.975 416.675 482.954 419.048C481.513 420.111 479.899 418.633 478.417 419.321Z" fill="#F18629"/>
<path d="M396.676 406.771C398.2 408.099 400.051 408.321 401.952 408.221C405.094 408.065 408.259 408.583 411.395 408.101C413.208 407.82 413.939 408.474 413.199 410.473C412.179 413.454 410.818 416.306 409.142 418.974C408.502 419.936 407.652 420.849 407.885 422.167C406.211 426.601 399.66 430.702 395.301 430.055C393.17 429.376 391.216 430.326 389.197 430.708C373.231 433.721 360.377 427.854 349.616 416.51C345.609 412.431 342.277 407.742 339.742 402.617C339.564 400.425 341.249 401.219 342.163 401.285C345.696 401.572 349.226 402.088 352.702 402.687C365.933 404.874 379.326 405.929 392.736 405.842C394.115 405.725 395.495 406.051 396.676 406.771Z" fill="#F1852B"/>
<path d="M264.777 181.114C269.414 182.528 273.323 185.403 277.736 187.337C287.581 191.767 297.838 195.218 308.359 197.64C320.76 200.405 333.186 203.243 345.948 203.701C350.686 203.872 355.438 203.877 360.155 204.308C363.57 204.585 364.482 206.33 362.562 209.192C360.552 212.008 358.159 214.53 355.452 216.685C350.928 220.5 346.409 224.37 341.585 227.788C338.408 230.048 334.705 231.554 331.237 233.402C329.583 234.266 327.932 235.083 326.955 236.777C323.095 232.293 319.235 227.806 315.375 223.316C312.533 219.988 314.621 216.309 314.733 212.794C314.774 211.601 316.133 212.028 316.955 212.055C320.407 212.169 323.855 212.322 327.313 212.468C329.12 212.544 330.935 212.24 331.227 210.204C331.519 208.169 329.628 207.659 328.101 207.337C325.408 206.728 322.68 206.282 319.933 206.001C308.663 205.022 297.595 203.015 287.296 198.267C278.594 194.234 270.4 189.308 264.777 181.114Z" fill="#C3754E"/>
<path d="M312.129 89.6518C312.481 89.6655 312.822 89.7736 313.117 89.9648C313.412 90.156 313.651 90.4232 313.807 90.7384C316.227 97.5163 320.823 103.631 319.937 111.432C319.828 113.51 319.044 115.496 317.703 117.088C315.797 119.105 314.523 121.636 314.039 124.369C313.97 124.861 313.785 125.329 313.501 125.736C309.1 131.16 307.813 137.946 305.046 144.128C302.098 150.684 300.867 157.942 296.725 163.989C295.477 165.805 296.352 169.368 297.889 170.238C291.219 173.276 285.402 171.758 280.203 166.925C279.054 164.876 280.203 163.511 281.738 162.456C283.062 161.582 284.016 160.249 284.418 158.714C285.241 155.976 286.383 153.344 287.818 150.872C290.109 146.654 291.328 142.072 292.285 137.406C292.539 136.136 293.749 135.276 293.695 133.893C294.02 132.437 294.528 131.028 295.208 129.7C299.692 126.468 301.017 121.562 302.324 116.576C303.839 110.798 301.38 106.156 298.181 101.849C296.854 100.054 296.086 98.392 296.262 96.2204C296.295 95.9158 296.406 95.6247 296.584 95.3754C300.812 93.1705 305.172 91.2312 309.641 89.5686C310.47 89.3112 311.339 88.8432 312.129 89.6518Z" fill="#CF8A62"/>
<path d="M505.152 244.602C504.23 245.137 504.749 245.671 505.086 246.3C509.276 254.005 513.738 261.583 517.524 269.485C521.642 278.08 526.574 286.297 529.834 295.314C530.218 296.102 530.689 296.844 531.239 297.526C530.71 297.792 530.189 298.059 529.654 298.309C528.004 299.125 526.165 300.702 524.597 300.504C523.029 300.305 523.497 297.571 522.628 296.083C519.761 291.193 514.16 289.852 509.413 293.006C508.578 293.533 507.962 294.386 506.56 294.486C505.649 286.199 503.474 278.158 501.016 270.197C494.424 248.879 486.004 228.171 475.848 208.303C474.705 206.079 474.856 205.007 477.491 204.745C478.848 204.61 480.11 203.802 481.503 204.105C484.392 210.279 488.524 215.763 491.132 222.081C491.516 222.986 491.774 223.94 491.9 224.915C493.262 232.233 497.241 237.862 503.117 242.259C504.009 242.886 505.183 243.251 505.152 244.602Z" fill="#B3B3B5"/>
<path d="M490.686 222.035C488.513 220.314 488.421 217.447 486.956 215.293C485.046 212.477 483.469 209.466 481.723 206.489C481.292 205.749 480.729 204.967 481.536 204.098C486.098 202.544 487.867 199.971 487.821 194.977C487.757 190.593 485.15 186.801 481.212 185.848C478.152 185.1 475.184 186.341 472.195 186.866C471.096 187.132 469.96 187.213 468.833 187.108C481.957 183.159 494.037 176.337 504.195 167.137C508.174 167.785 510.737 170.749 513.503 173.168C519.967 178.809 526.343 184.569 531.675 191.37C533.108 193.236 534.361 195.27 535.817 197.139C536.461 197.983 537.666 199.142 536.339 200.46C534.911 200.59 533.971 199.587 532.908 198.922C521.603 191.827 509.445 192.804 499.681 201.769C495.409 205.692 492.726 211.045 492.139 216.815C491.883 218.6 492.415 220.639 490.686 222.035Z" fill="#E2E3E3"/>
<path d="M561.963 305.221C566.938 300.429 567.954 300.401 573.049 305.25C579.447 311.313 582.067 319.137 582.277 327.683C582.571 339.381 579.939 350.628 575.876 361.552C575.492 362.582 575.188 363.785 573.642 363.018C562.792 357.647 551.073 353.908 541.381 346.358C534.484 340.974 529.978 334.13 529.532 325.089C529.343 321.177 529.677 320.872 535.087 319.695C535.454 319.851 535.771 320.106 536.003 320.431C536.236 320.755 536.374 321.138 536.402 321.536C537.906 329.745 542.939 335.262 549.896 339.327C554.849 342.224 559.899 344.891 565.437 346.528C567.085 347.011 568.355 346.884 568.943 344.999C572.418 334.003 572.99 323.152 567.856 312.439C566.957 310.559 565.61 308.929 563.932 307.693C563.068 307.021 562.067 306.473 561.963 305.221Z" fill="#EF7D30"/>
<path d="M561.963 305.219C569.698 309.553 571.38 317.119 572.241 324.958C573.059 332.153 571.825 339.252 569.549 346.124C569.014 347.735 568.113 348.296 566.725 347.835C556.305 344.375 546.315 340.214 539.335 331.07C536.714 327.65 535.913 323.665 535.044 319.634C544.59 315.903 553.419 310.751 561.963 305.219Z" fill="#FDC72A"/>
<path d="M456.806 318.197C439.933 316.669 425.754 312.881 413.247 304.207C407.024 299.892 401.69 294.66 398.167 287.816C397.866 287.23 397.186 286.628 397.709 285.942C398.232 285.255 398.964 285.806 399.601 285.961C399.874 286.08 400.166 286.149 400.463 286.165C406.38 285.378 409.506 289.513 413.188 293.035C418.752 298.357 425.565 301.849 432.795 304.297C452.005 310.79 471.554 312.037 491.361 307.285C498.831 305.515 505.558 301.959 512.149 298.146C513.809 297.203 515.318 296.478 516.886 298.332C518.835 300.66 518.754 302.151 516.155 303.817C507.108 309.703 497.164 313.363 486.674 315.751C476.879 317.942 466.827 318.765 456.806 318.197Z" fill="#737579"/>
<path d="M316.019 290.034C324.765 283.767 334.074 278.368 343.129 272.585C358.682 262.657 374.365 252.897 389.965 243.076C390.282 242.88 390.605 242.708 391.233 242.387C390.211 245.797 389.228 248.837 388.406 251.931C388.101 253.054 387.296 253.123 386.472 253.421C380.361 255.625 378.717 258.011 378.947 264.65C379.002 266.405 377.72 266.792 376.688 267.397C364.681 274.422 352.587 281.352 340.624 288.42C332.805 293.028 325.089 297.819 317.303 302.509C316.796 302.783 316.271 303.023 315.732 303.229C313.762 303.988 312.501 303.323 312.728 301.211C313.003 298.509 313.373 295.799 313.852 293.113C314.1 291.724 315.565 291.241 316.019 290.034Z" fill="#FAB83B"/>
<path d="M253.274 132.07C253.471 132.066 253.667 132.031 253.853 131.966C257.344 130.135 260.116 130.717 262.148 134.271C262.488 134.869 263.112 135.862 263.977 135.354C264.842 134.846 264.381 133.898 264.041 133.197C261.73 128.4 259.685 123.34 253.492 122.259C258.483 116.201 264.711 111.678 271.551 108.004C273.862 106.758 276.1 105.245 278.795 104.822C280.858 105.054 282.757 106.057 284.112 107.629C285.435 109.083 286.854 110.434 288.231 111.821C289.976 113.546 291.389 115.649 290.461 118.393C290.31 118.911 290.295 119.459 290.416 119.984C290.537 120.51 290.79 120.996 291.152 121.395C291.86 122.435 292.562 123.545 292.116 124.935C291.893 125.143 291.602 125.263 291.297 125.272C284.426 125.229 280.538 127.844 277.731 134.522C279.776 134.213 280.738 131.329 283.157 132.373C284.147 133.443 283.391 134.166 282.631 134.849C280.646 136.638 278.989 138.761 277.734 141.12C275.593 145.049 272.094 147.378 267.985 148.819C266.233 149.429 264.808 150.588 262.833 150.919C259.364 151.493 256.83 149.545 253.935 148.518C252.537 143.098 251.661 137.602 253.274 132.07Z" fill="#9D6A5A"/>
<path d="M494.868 356.069C493.742 350.888 492.626 345.702 491.522 340.512C491.156 338.772 489.852 339.03 488.738 339.288C482.845 340.663 477.029 342.44 471.077 343.462C466.259 344.282 461.444 345.056 456.542 345.727C451.64 346.398 446.649 347.3 441.686 347.84C434.454 348.639 427.279 349.704 420.025 350.461C414.067 351.078 408.078 351.281 402.143 352.098C399.304 352.356 396.453 352.466 393.602 352.427C391.864 351.655 390.457 350.292 389.63 348.58C392.705 347.182 395.931 347.737 399.002 347.472C410.679 346.471 422.345 345.406 433.953 343.775C443.309 342.483 452.601 340.806 461.903 339.201C471.8 337.486 481.573 335.253 491.318 332.876C495.228 331.927 499.076 330.679 502.9 329.429C504.649 328.858 505.729 329.12 506.292 330.964C508.067 336.799 509.87 342.632 511.699 348.462C512.171 349.958 511.269 350.439 510.207 350.836C505.143 352.729 500.123 354.753 494.868 356.069Z" fill="#E4621E"/>
<path d="M396.676 406.769C385.527 407.511 374.405 406.078 363.282 405.333C355.885 404.836 348.758 402.57 341.366 402.121C340.665 402.064 340.045 401.61 339.742 402.615C338.43 400.132 337.133 397.58 335.8 395.072C334.657 392.951 335.344 392.397 337.592 392.501C346.845 392.935 356.106 393.296 365.376 393.584C377.59 393.958 389.795 393.57 401.987 392.762C404.535 392.597 407.095 392.575 409.644 392.489C409.767 392.533 409.877 392.606 409.965 392.703C410.052 392.8 410.114 392.917 410.146 393.044C409.889 394.201 409.911 395.403 410.21 396.549C410.51 397.696 411.078 398.755 411.868 399.639C413.314 401.34 412.582 401.962 410.676 402.021C407.738 402.115 404.791 402.216 401.842 402.349C400.662 402.358 399.486 402.478 398.328 402.706C396.059 403.25 395.193 404.55 396.676 406.769Z" fill="#E2641E"/>
<path d="M482.182 195.724C482.218 198.301 480.031 198.417 478.293 198.846C472.324 200.205 466.427 201.862 460.624 203.811C443.131 210.121 427.116 218.808 414.686 233.084C410.454 237.795 407.081 243.212 404.722 249.089C403.931 251.132 402.888 252.172 400.711 252.059C399.824 251.977 398.93 252.009 398.05 252.151C394.305 252.925 393.331 253.012 395.241 248.32C400.573 235.225 409.643 225.056 420.566 216.455C433.716 206.093 448.852 199.743 464.756 194.864C468.994 193.546 473.312 192.497 477.683 191.724C480.855 191.189 482.417 192.536 482.182 195.724Z" fill="#727274"/>
<path d="M410.173 393.025L409.671 392.47C420.336 391.15 431.036 390.086 441.678 388.455C454.473 386.602 467.105 383.759 479.459 379.95C485.565 378.007 491.658 376.03 497.713 373.932C499.864 373.196 500.645 373.616 500.355 375.92C500.065 378.225 500.436 380.679 499.78 383.002C492.443 385.574 485.239 388.458 477.783 390.554C466.945 393.689 455.901 396.063 444.733 397.66C437.036 398.706 429.32 399.324 421.582 399.899C421.286 399.884 420.995 399.976 420.763 400.16C420.531 400.344 420.374 400.606 420.321 400.898C418.759 399.068 417.037 397.352 415.676 395.389C415.12 394.469 414.291 393.746 413.304 393.323C412.317 392.899 411.222 392.795 410.173 393.025Z" fill="#E76621"/>
<path d="M536.564 200.327C533.001 193.966 528.47 188.198 523.133 183.231C518.54 178.826 514.053 174.296 508.92 170.498C507.359 169.342 505.752 168.253 504.164 167.134C508.469 162.106 508.469 162.106 513.665 166.099C537.282 184.26 552.427 208.054 560.72 236.446C563.626 246.408 565.422 256.573 567.102 266.807C567.782 271.012 566.475 273.844 563.231 276.147C562.256 267.445 560.814 258.802 558.91 250.254C556.525 239.54 553.075 229.09 548.611 219.061C547.299 216.191 546.765 212.528 543.432 210.856C543.133 210.863 542.84 210.77 542.599 210.593C542.359 210.416 542.183 210.164 542.101 209.876C540.773 207.118 539.104 204.537 537.133 202.195C536.887 201.958 536.706 201.662 536.606 201.335C536.506 201.008 536.492 200.661 536.564 200.327Z" fill="#FEFEFE"/>
<path d="M351.857 355.996C351.039 357.094 350.19 358.181 349.394 359.304C345.918 364.178 347.364 368.026 353.253 369.233C355.591 369.602 357.758 370.686 359.457 372.334C360.19 373.059 360.726 373.973 360.27 374.998C359.815 376.022 358.723 375.616 357.901 375.597C353.574 375.436 349.219 375.225 344.918 375.034C337.169 374.287 329.39 374.012 321.622 373.405C318.742 373.171 317.432 372.043 316.737 369.373C315.669 365.263 314.826 361.108 314.072 356.936C313.868 355.835 313.47 354.591 314.349 353.529C315.789 352.569 317.395 352.882 318.935 353.03C329.126 353.973 339.362 354.336 349.594 354.117C350.737 354.083 352.822 353.373 351.857 355.996Z" fill="#F1852C"/>
<path d="M254.345 148.657C255.475 148.004 256.451 147.299 257.483 149.03C258.177 150.235 263.903 150.818 264.84 149.627C266.605 147.395 269.516 147.631 271.705 146.13C273.714 144.835 275.426 143.131 276.729 141.128C278.544 138.274 280.229 135.472 283.035 133.49C283.195 133.377 283.006 132.775 282.981 132.401C283.001 132.252 283.06 132.112 283.152 131.994C283.244 131.875 283.366 131.784 283.505 131.728C283.644 131.672 283.796 131.655 283.944 131.677C284.092 131.699 284.232 131.761 284.348 131.855C287.257 134.364 290.72 133.956 294.134 133.853L294.979 135.054C292.807 136.343 294.034 139.183 293.189 140.223C290.543 143.556 291.355 147.994 288.705 151.271C286.787 153.618 285.94 156.639 285.038 159.559C284.564 161.105 284.07 162.601 282.036 163.172C280.488 163.601 280.334 165.41 280.204 166.912C275.509 164.155 274.442 159.253 272.957 154.611C272.54 153.309 272.205 151.975 271.73 150.701C271.458 149.959 271.052 149.3 269.992 149.475C268.932 149.651 268.874 150.668 268.87 151.293C268.856 154.594 268.984 157.892 269.12 161.189C269.176 162.461 269.421 163.732 268.585 164.86C266.866 167.889 263.629 167.373 260.927 168.064C259.107 168.534 258.033 167.037 258.023 165.492C258.11 161.414 256.942 157.407 254.678 154.014C254.156 153.229 253.85 152.321 253.791 151.38C253.733 150.439 253.924 149.5 254.345 148.657Z" fill="#B77A5D"/>
<path d="M462.077 155.475L455.652 144.183C456.984 142.984 458.446 143.617 459.861 143.946C468.823 145.846 477.164 149.437 485.396 153.305C488.448 154.733 491.638 155.831 494.484 157.662C498.044 159.947 498.129 161.538 495.317 164.66C491.527 168.811 486.927 171.82 482.054 174.481C481.038 174.901 480.159 175.595 479.515 176.485C478.2 177.265 476.943 178.216 475.266 177.898C473.122 176.013 472.48 173.189 471.085 170.866C468.034 165.803 464.748 160.824 462.077 155.475Z" fill="#E84441"/>
<path d="M596.099 275.645C589.648 270.425 582.52 266.71 574.1 265.94C573.227 265.869 572.64 265.591 572.516 264.576C570.992 251.938 567.669 239.694 564.443 227.433C565.646 226.659 566.504 227.505 567.366 228.114C570.471 230.395 573.404 232.902 576.142 235.614C585.821 244.618 592.721 256.204 596.029 269.003C596.537 271.032 598.077 273.43 596.099 275.645Z" fill="#E83F3D"/>
<path d="M465.949 264.286C466.951 268.913 464.697 272.682 462.588 276.416C458.142 284.14 451.86 290.648 444.298 295.365C442.026 296.82 439.444 297.798 437.408 299.66C430.492 297.674 424.021 294.38 418.347 289.955C417.604 289.349 416.406 288.792 416.682 287.737C416.957 286.683 418.233 287.071 419.062 287.004C436.562 284.908 450.954 276.311 464.291 265.482C464.815 265.081 465.392 264.708 465.949 264.286Z" fill="#E56420"/>
<path d="M456.883 324.136C457.84 323.279 458.968 323.727 460.007 323.812C468.103 324.469 476.034 323.267 483.985 321.909C490.509 320.828 496.936 319.232 503.207 317.133C504.34 316.742 505.745 316.318 506.056 318.038C506.436 320.096 506.026 322.312 503.848 322.998C497.344 325.06 490.724 326.994 484.072 328.648C477.992 330.166 471.816 331.32 465.661 332.499C457.391 334.077 449.131 335.822 440.794 336.959C428.66 338.62 416.456 339.878 404.268 341.122C399.1 341.661 393.879 341.776 388.688 342.107C386.045 342.273 387.337 340.413 387.198 339.293C394.817 340.474 402.269 339.012 409.744 337.868C421.934 336.007 433.735 332.49 445.504 328.891C449.445 327.762 453.053 325.655 456.883 324.136Z" fill="#593136"/>
<path d="M478.415 419.325C485.16 418.288 488.29 413.094 491.486 407.975C491.992 408.27 492.532 408.502 493.093 408.668C498.338 409.625 499.879 411.231 500.626 416.463C501.316 421.334 501.629 426.254 503.508 430.913C504.826 434.188 506.77 437.173 508.862 440.48C506.606 440.463 505.102 439.382 503.508 438.627C502.51 438.142 501.381 437.512 500.458 438.245C499.535 438.978 499.679 440.423 500.015 441.559C500.625 443.795 501.842 445.881 502.093 449.03C499.454 446.812 497.318 445.023 495.191 443.219C493.968 442.185 492.838 441.175 491.744 443.43C491.118 444.71 490.414 443.726 490.056 443.151C486.206 436.922 482.359 430.646 482.186 423.021C482.114 420.393 481.007 419.203 478.415 419.325Z" fill="#8D665A"/>
<path d="M309.765 246.273L316.427 253.577C321.537 259.194 326.994 264.485 332.764 269.421C334.313 270.734 334.095 271.366 332.524 272.371C324.57 277.475 316.641 282.661 308.73 287.808C307.459 288.64 306.305 289.092 306.374 286.777C306.799 273.736 307.42 260.727 309.153 247.768C309.306 247.25 309.512 246.749 309.765 246.273Z" fill="#F08429"/>
<path d="M395.302 430.03C400.438 428.911 404.517 426.09 407.886 422.142C413.427 424.334 414.082 429.242 414.566 434.208C415.148 440.108 416.118 445.92 418.378 451.442C418.583 451.95 419.185 452.529 418.542 453.039C417.898 453.549 417.225 453.059 416.644 452.703C415.446 451.948 414.365 450.443 412.764 451.723C411.163 453.003 411.882 454.582 412.033 456.138C412.184 457.695 413.005 459.385 412.251 461.256C410.166 460.216 409.444 458.082 408.124 456.486C406.118 454.074 405.14 454.217 403.792 457.56C401.603 454.007 399.938 450.156 398.851 446.127C397.619 441.789 396.196 437.46 396.166 432.857C396.014 431.878 395.723 430.927 395.302 430.03Z" fill="#8D675B"/>
<path d="M312.432 229.34C318.69 236.936 325.116 243.73 331.678 250.417C335.83 254.491 340.257 258.274 344.928 261.741C346.717 263.121 346.474 263.87 344.687 264.715C344.327 264.881 343.979 265.069 343.643 265.279C341.489 266.641 339.277 269.305 337.138 268.917C334.999 268.53 332.999 265.849 331.063 264.044C324.1 257.629 317.529 250.801 311.385 243.598C310.662 242.747 309.928 242.03 310.206 240.754C310.874 237.117 310.95 233.354 312.432 229.34Z" fill="#FAB63B"/>
<path d="M456.883 324.136C456.084 326.661 453.393 326.633 451.658 327.427C444.283 330.656 436.559 333.019 428.64 334.468C424.944 335.214 421.341 336.576 417.626 337.455C412.435 338.673 407.076 338.729 401.944 339.991C398.219 340.901 394.5 340.179 390.796 340.726C389.426 340.924 387.997 340.768 387.179 339.324C387.174 338.735 387.118 338.147 387.013 337.568C385.634 332.609 386.347 333.379 390.298 333.201C400.122 332.771 409.78 330.981 419.536 330.031C430.574 328.986 441.331 326.145 452.328 324.836C453.845 324.682 455.26 323.735 456.883 324.136Z" fill="#734546"/>
<path d="M534.88 302.454C545.494 296.781 555.784 290.607 564.987 282.817C567.774 285.363 567.708 288.811 567.982 292.16C559.349 300.41 549.303 307.041 538.324 311.738C535.116 311.153 532.784 304.945 534.88 302.454Z" fill="#949599"/>
<path d="M312.129 89.6567C307.603 90.8733 303.539 93.2204 299.217 94.9446C298.457 95.3611 297.607 95.5882 296.74 95.6068C295.334 93.4176 296.422 92.1042 298.321 91.0624C308.057 86.1292 318.288 82.2421 328.844 79.4663C343.488 75.6733 358.088 75.4329 372.876 77.3777C380.203 78.2497 387.387 80.0627 394.251 82.7718C392.516 83.8427 391.058 82.2909 389.422 82.2452C381.32 82.0469 373.373 80.3326 365.307 79.6858C355.542 78.8932 345.96 79.8577 336.327 81.7368C327.854 83.3696 320.217 87.0978 312.129 89.6567Z" fill="#F2B38A"/>
<path d="M308.422 216.399C308.789 218.805 307.144 220.437 305.078 222.273C297.641 228.908 291.487 236.519 288.671 246.333C288.228 247.881 287.601 248.289 285.928 247.821C280.754 246.379 280.792 246.501 282.886 241.388C287.819 229.402 296.026 220.216 306.651 213.047C307.179 212.686 307.721 211.859 308.41 212.454C308.72 212.724 308.599 213.538 308.601 214.101C308.602 214.663 308.513 215.282 308.422 216.399Z" fill="#616467"/>
<path d="M298.319 91.0448C297.768 91.6599 297.344 92.3783 297.073 93.1585C296.802 93.9386 296.688 94.7648 296.739 95.5893C296.721 95.8096 296.702 96.0378 296.684 96.2581C296.674 97.3581 295.773 97.7285 295.015 98.0946C290.459 100.228 285.938 102.419 281.452 104.668C280.536 105.124 279.527 104.963 278.645 105.399C270.141 109.167 262.307 113.956 255.878 120.761C255.15 121.376 254.335 121.881 253.46 122.259C251.571 122.692 251.222 121.919 251.847 120.275C253.444 116.017 256.464 112.959 260.147 110.518C267.76 105.531 275.764 101.167 284.08 97.4684C288.83 95.3512 293.373 92.75 298.319 91.0448Z" fill="#CA9B84"/>
<path d="M479.567 176.514C478.198 176.118 479.27 175.793 479.645 175.555C482.557 173.542 485.454 171.512 488.423 169.583C491.391 167.653 493.656 165.121 496.11 162.698C497.606 161.236 496.603 160.236 495.415 159.355C492.424 157.172 489.017 155.913 485.718 154.41C477.216 150.552 468.706 146.693 459.491 144.789C458.245 144.529 456.964 144.402 455.704 144.212C454.035 142.041 455.846 142.458 456.996 142.543C463.685 143.107 470.29 144.425 476.684 146.47C485.539 149.252 494.005 153.146 501.88 158.058C503.699 159.164 503.606 159.727 502.15 161.169C495.639 167.64 487.982 172.844 479.567 176.514Z" fill="#F39EA0"/>
<path d="M399.955 262.371C401.509 266.346 401.826 270.34 400.169 274.371C398.891 276.643 400.933 278.219 401.284 280.148C396.638 279.47 392.14 278.012 387.979 275.837C386.932 275.269 386.07 274.413 385.494 273.37C384.384 271.537 384.727 270.037 386.808 269.097C388.172 268.479 390.76 269.196 390.471 266.701C390.183 264.207 387.741 265.11 386.153 264.767C383.819 264.245 383.423 262.597 385.21 260.58C389.874 260.281 394.556 260.645 399.117 261.661C399.445 261.833 399.732 262.075 399.955 262.371Z" fill="#866960"/>
<path d="M460.564 210.512C446.237 222.306 430.977 232.717 414.889 242.983C419.609 232.159 446.87 212.845 460.564 210.512Z" fill="#F9B53E"/>
<path d="M320.849 64.569C320.997 62.975 321.576 61.4514 322.525 60.1622C323.474 58.873 324.757 57.8671 326.235 57.2525C327.13 56.8095 328.144 56.665 329.128 56.8403C330.111 57.0157 331.013 57.5016 331.7 58.2268C335.107 61.4337 336.843 65.6059 338.603 69.78C339.095 70.9367 338.606 71.2137 337.448 71.4286C333.581 72.1364 329.754 73.0217 325.91 73.8422C324.934 74.0561 323.994 74.3203 323.344 73.1587C321.744 70.5768 320.881 67.6062 320.849 64.569Z" fill="#EFA271"/>
<path d="M596.098 275.651C596.957 271.317 594.845 267.574 593.533 263.737C588.818 250.001 579.943 239.223 568.811 230.201C567.503 229.145 566.304 227.622 564.404 227.412C564.208 227.19 563.931 227.001 563.841 226.741C563.318 225.376 562.852 223.991 562.35 222.565C563.721 222.169 564.69 223.008 565.668 223.547C583.882 234.022 594.221 249.791 597.043 270.548C597.232 272.013 597.345 273.487 597.381 274.963C597.436 275.855 596.992 276.254 596.098 275.651Z" fill="#F19395"/>
<path d="M462.077 155.474C465.012 158.35 466.917 162.013 468.854 165.568C471.066 169.636 474.203 173.241 475.29 177.899C473.107 178.743 470.91 179.555 468.754 180.362C466.597 181.169 465.303 180.628 464.62 178.696C462.64 173.039 460.265 167.556 457.801 162.105C457.276 160.953 456.877 159.923 458.894 159.667C461.16 159.36 462.208 157.861 462.077 155.474Z" fill="#D72A28"/>
<path d="M300.845 309.739C295.171 306.152 290.438 301.26 287.041 295.472C285.237 292.317 283.677 289.029 282.375 285.636C281.56 283.669 282.246 282.537 284.226 282.341C285.823 282.186 287.709 279.63 288.841 283.255C290.778 289.498 294.361 295.105 299.214 299.485C299.773 299.939 300.209 300.527 300.48 301.194C300.751 301.861 300.849 302.586 300.765 303.302C300.656 305.233 300.798 307.185 300.845 309.739Z" fill="#5E5D5E"/>
<path d="M399.954 262.369L399.346 262.145C396.833 260.421 396.746 260.026 398.454 258.113C412.844 257.634 424.629 251.106 435.339 242.099C436.699 240.966 438.007 239.781 439.344 238.623C440.003 239.088 439.757 239.583 439.45 240.144C434.537 249.249 427.072 255.248 417.345 258.775C411.732 260.894 405.799 261.394 399.954 262.369Z" fill="#F8B164"/>
<path d="M534.878 302.452C534.117 304.893 535.986 309.876 538.353 311.739C533.145 314.33 527.62 316.23 521.92 317.391C519.501 317.907 515.506 315.801 514.398 313.652C513.71 312.368 514.868 312.153 515.537 311.717C518.886 309.473 522.492 307.638 526.277 306.252C529.209 305.16 532.012 303.708 534.878 302.452Z" fill="#6C6D72"/>
<path d="M302.924 247.527L302.383 254.184C301.697 262.634 300.791 271.066 300.712 279.55C300.705 280.611 301.222 282.348 299.739 282.568C297.999 282.823 295.784 283.284 294.484 281.729C293.941 281.131 293.629 280.359 293.603 279.552C293.577 278.744 293.839 277.954 294.343 277.322C296.866 274.438 297.905 271.489 295.715 267.93C295.267 267.204 295.925 266.418 296.189 265.703C296.662 264.466 297.095 263.124 296.492 261.974C295.069 259.403 296 256.524 295.182 253.908C295.042 253.593 295.026 253.235 295.139 252.909C295.253 252.583 295.486 252.312 295.792 252.152C298.044 250.663 300.315 249.216 302.924 247.527Z" fill="#CE5F26"/>
<path d="M401.306 280.153C398.381 278.727 398.152 276.768 400.191 274.376C400.449 275.98 401.791 275.543 402.763 275.677C413.121 277.107 423.658 276.518 433.793 273.943C438.693 272.701 443.431 270.829 448.249 269.24C443.306 273.25 437.585 275.811 431.638 277.855C421.903 281.264 411.444 282.057 401.306 280.153Z" fill="#DB5F1D"/>
<path d="M290.483 261.755C291.43 263.645 290.59 264.44 288.748 264.782C286.437 265.251 284.018 265.103 281.795 266.047C280.745 266.484 279.815 266.821 280.088 268.332C280.362 269.843 281.174 270.083 282.372 270.061C284.33 270.03 286.294 269.936 288.259 269.93C289.147 269.922 290.125 269.97 290.552 270.955C290.72 271.43 290.719 271.949 290.551 272.424C290.383 272.899 290.057 273.301 289.627 273.565C287.996 274.924 286.112 275.946 284.083 276.572C282.054 277.197 279.921 277.413 277.808 277.207C274.085 276.818 272.724 273.096 271.385 270.08C270.56 268.056 270.312 265.843 270.668 263.686C275.239 264.849 279.53 263.796 283.802 262.202C285.945 261.457 288.24 261.58 290.483 261.755Z" fill="#6E4A3D"/>
<path d="M351.859 355.995C351.737 355.542 352.274 354.682 351.221 354.779C338.936 355.952 326.729 354.613 314.513 353.676C313.742 353.899 313.832 354.936 313.091 355.193C312.517 354.259 313.042 353.264 312.929 352.304C312.714 350.465 313.522 349.977 315.339 350.037C327.628 350.472 339.913 351.24 352.224 350.33C354.876 350.142 355.242 350.813 353.925 353.177C353.3 354.162 352.61 355.103 351.859 355.995Z" fill="#D96121"/>
<path d="M308.604 338.86C308.45 336.86 308.918 335.876 311.379 336.092C324.068 337.121 336.816 337.23 349.521 336.416C351.908 336.277 353.827 336.639 353.878 339.621C354.4 341.485 353.153 341.819 351.778 341.977C349.52 342.185 347.251 342.231 344.987 342.115C335.152 341.799 325.297 341.926 315.479 341.097C313.058 340.869 310.526 340.743 308.604 338.86Z" fill="#996564"/>
<path d="M308.601 338.856C322.637 341.579 336.85 340.452 350.988 341.03C351.909 341.104 353.781 341.755 353.877 339.593C356.17 344.032 356.165 343.992 351.561 344.22C340.857 344.694 330.135 344.616 319.439 343.989C317.484 343.878 315.512 344.169 313.557 344.058C309.308 343.808 308.867 343.289 308.601 338.856Z" fill="#5A3537"/>
<path d="M290.482 261.752C285.702 262.575 281.123 264.16 276.416 265.259C275.404 265.484 274.353 265.463 273.35 265.199C272.348 264.934 271.423 264.433 270.654 263.738C270.695 263.242 270.656 262.748 270.696 262.252C271.006 258.428 271.567 254.648 275.618 252.839C279.842 250.956 283.732 252.302 287.446 254.456C287.998 254.778 288.878 255.167 288.688 255.943C288.45 256.93 287.403 256.742 286.686 256.699C284.381 256.512 282.201 257.317 279.936 257.506C279.139 257.568 278.273 257.893 278.242 258.857C278.204 260.01 279.115 260.298 280.06 260.375C282.522 260.575 284.992 260.696 287.448 260.975C288.503 261.052 289.684 260.752 290.482 261.752Z" fill="#8D6B5B"/>
<path d="M496.917 367.801C497.01 364.894 496.229 362.13 495.673 359.321C500.854 357.445 506.045 355.553 511.233 353.693C511.592 353.564 512.189 353.43 512.373 353.604C513.941 355.165 513.696 357.41 514.373 359.31C514.856 360.68 513.684 361.068 512.818 361.394C507.473 363.423 502.399 366.123 496.917 367.801Z" fill="#F3982F"/>
<path d="M399.273 363.274C397.926 364.748 397.165 366.706 396.174 368.566C394.554 371.555 394.775 371.367 392.219 369.092C387.425 364.83 383.976 359.608 380.759 354.16C380.28 353.329 379.035 352.372 380.344 351.465C381.427 350.713 382.521 350.406 383.836 351.867C387.875 356.361 392.569 360.092 398.298 362.307C398.793 362.451 399.288 362.507 399.273 363.274Z" fill="#724344"/>
<path d="M254.342 148.659C254.639 150.267 254.867 151.949 255.235 153.563C255.352 154.342 255.639 155.085 256.076 155.741C256.513 156.396 257.089 156.948 257.763 157.356C259.32 158.274 259.923 159.527 258.673 161.263C257.199 163.321 259.153 165.103 259.361 167.037C259.384 167.237 260.178 167.61 260.313 167.502C262.721 165.646 267.284 168.068 268.456 163.49C268.498 163.953 268.539 164.416 268.573 164.878C267.451 168.264 264.927 170.181 261.616 170.087C259.056 170.014 257.202 169.142 256.376 166.343C253.154 155.786 250.675 145.051 250.439 133.904C250.374 131.19 251.12 130.791 253.304 132.078C253.32 137.62 253.666 143.157 254.342 148.659Z" fill="#B98468"/>
<path d="M366.135 356.336C366.005 359.318 365.197 362.232 363.772 364.856C363.037 366.301 362.345 366.427 361.019 365.789C359.388 364.868 357.642 364.167 355.826 363.704C353.336 363.256 353.683 362.397 354.949 360.948C357.649 357.841 360.371 354.751 361.336 350.568C361.57 349.534 362.391 348.888 363.288 349.452C364.389 350.135 366.625 349.319 366.512 351.686C366.437 353.105 366.285 354.479 366.135 356.336Z" fill="#714546"/>
<path d="M316.018 290.03C313.859 293.11 314.928 296.927 313.703 300.209C312.942 302.262 313.678 303.154 315.75 303.195L307.001 309.201C306.266 304.896 306.612 301.012 306.61 297.139C306.607 295.903 307.538 295.464 308.325 294.942C310.893 293.265 313.447 291.659 316.018 290.03Z" fill="#FCCD76"/>
<path d="M312.801 308.803C313.692 312.654 312.822 316.543 312.975 320.42C313.109 323.742 313.109 327.06 313.497 330.37C311.131 330.836 309.916 329.803 309.238 327.522C307.965 323.184 307.214 318.709 307.001 314.193C306.932 312.905 307.222 311.962 308.501 311.329C309.955 310.592 311.338 309.651 312.801 308.803Z" fill="#F6AA5A"/>
<path d="M451.784 152.919C449.268 151.717 448.451 149.1 447.259 147.008C443.426 140.171 440.081 133.08 436.719 125.996C434.447 121.202 431.952 116.422 429.328 111.766C428.838 110.879 427.481 110.032 428.359 108.678C432.74 114.617 436.247 121.079 439.687 127.583C443.93 135.618 447.931 143.791 452.854 151.454C453.896 153.051 453.317 153.257 451.784 152.919Z" fill="#F2BA95"/>
<path d="M372.697 326.814C374.809 325.876 376.277 326.914 377.631 328.386C378.52 329.338 378.413 330.169 377.361 330.828C373.263 333.41 371.157 337.499 368.979 341.592C367.354 344.628 366.981 344.637 364.153 342.499C362.606 341.431 361.336 340.008 360.451 338.349C361.592 337.555 362.758 338.125 363.823 338.464C365.499 338.996 366.332 338.494 366.922 336.879C367.992 334.25 369.221 331.689 370.602 329.21C371.096 328.253 371.815 327.431 372.697 326.814Z" fill="#693F42"/>
<path d="M372.695 326.812C370.866 331.003 368.32 334.852 366.88 339.225C366.649 339.919 366.251 340.537 365.384 339.896C363.886 338.832 361.982 339.16 360.435 338.322C358.174 334.852 358.676 331.693 362.107 329.033C362.688 330.664 361.899 332.184 362.136 333.653C362.318 334.729 362.537 335.935 363.825 336.166C365.113 336.397 365.483 335.263 365.864 334.375C366.682 332.588 367.259 330.655 368.561 329.153C369.627 327.925 370.694 326.483 372.695 326.812Z" fill="#885D5F"/>
<path d="M313.09 355.188C313.508 354.628 312.682 352.898 314.512 353.672C315.456 359.487 316.696 365.25 318.227 370.938C318.711 372.68 319.885 372.657 321.136 372.758C328.021 373.317 334.906 373.876 341.783 374.434C342.845 374.52 343.977 374.335 344.9 375.067C342.791 375.211 340.673 375.105 338.589 374.753C333.29 374.949 328.064 374.057 322.832 373.727C320.198 373.655 317.572 373.402 314.973 372.971C313.534 367.088 313.535 361.117 313.09 355.188Z" fill="#F6B267"/>
<path d="M430.617 68.3716C422.005 67.134 416.451 72.6231 410.45 77.276C408.758 78.6118 407.723 81.0146 405.048 80.9955C409.348 75.6264 413.868 70.4889 419.953 67.0466C421.639 66.0987 423.584 65.7159 425.503 65.9543C427.422 66.1928 429.215 67.04 430.617 68.3716Z" fill="#F2BB97"/>
<path d="M315.36 376.201C322.84 377.426 330.438 377.489 337.923 378.762C332.887 378.353 327.839 377.999 322.807 377.535C320.707 377.364 320.29 377.718 320.968 379.896C322.02 383.236 323.797 385.345 327.441 385.53C324.493 385.354 321.547 385.162 318.605 385.003C317.032 384.875 316.056 384.21 315.857 382.562C315.602 380.435 314.66 378.386 315.36 376.201Z" fill="#FDD785"/>
<path d="M295.092 245.666C297.191 239.326 301.018 234.14 305.946 229.044C306.377 237.688 300.453 241.484 295.092 245.666Z" fill="#71C5E1"/>
<path d="M385.999 374.307C381.411 369.65 376.611 365.165 373.257 359.452C372.943 358.928 372.667 358.43 372.01 358.329L372.427 353.191C375.25 356.47 376.677 360.253 379.172 363.377C381.077 365.758 382.856 368.238 384.831 370.545C385.31 371.035 385.665 371.631 385.868 372.285C386.071 372.939 386.116 373.632 385.999 374.307Z" fill="#DF8C2C"/>
<path d="M381.747 339.723C381.53 342.398 379.161 345.532 376.851 346.177C376.082 346.383 375.115 347.081 374.398 346.152C373.846 345.434 374.306 344.647 374.688 343.95C375.674 342.145 376.637 340.322 377.699 338.563C378.267 337.619 378.634 336.017 380.16 336.545C381.685 337.073 381.717 338.636 381.747 339.723Z" fill="#6B3F43"/>
<path d="M568.012 292.162C566.363 289.256 566.503 285.775 565.016 282.819C565.741 281.793 566.559 280.204 567.597 280.296C568.635 280.388 568.776 282.261 569.241 283.368C569.547 284.09 569.738 284.858 570.069 285.558C571.406 288.406 570.729 290.601 568.012 292.162Z" fill="#BABCC1"/>
<path d="M398.492 258.137C397.037 259.864 398.679 260.909 399.385 262.17C394.671 261.692 389.884 262.127 385.256 260.595C387.539 258.808 390.297 258.787 392.987 258.53C394.793 258.344 396.621 258.263 398.492 258.137Z" fill="#B69484"/>
<path d="M314.931 372.91L338.602 374.697C330.675 374.771 322.757 374.174 314.931 372.91Z" fill="#F1852C"/>
<path d="M300.515 292.24C299.294 291.27 297.873 290.442 298.049 288.761C298.299 288.555 298.592 288.407 298.907 288.327C299.221 288.247 299.55 288.238 299.868 288.299C301.545 289.211 300.077 290.898 300.515 292.24Z" fill="#70B1C0"/>
<path d="M369.524 122.852C366.771 122.659 364.066 122.03 361.51 120.99C358.339 119.655 357.353 117.651 358.212 114.386C360.449 105.856 371.103 100.384 379.231 103.579C385.373 105.97 386.67 114.478 381.659 119.133C378.05 122.514 373.645 123.115 369.524 122.852Z" fill="#222025"/>
<path d="M379.19 141.549C376.53 141.333 373.878 141.023 371.219 140.902C369.008 140.826 367.524 139.589 366.287 138.047C364.359 135.649 366.191 132.297 370.041 131.414C375.932 130.07 381.756 130.131 387.482 132.481C389.145 133.17 391.034 132.634 391.776 135.395C392.832 139.354 391.017 142.406 386.865 142.125C384.305 141.957 381.751 141.71 379.194 141.502L379.19 141.549Z" fill="#F08079"/>
<path d="M426.739 77.3653C425.138 80.1102 424.489 83.2255 424.007 86.2435C423.322 90.4805 420.636 93.2324 418.017 96.1245C416.808 97.4598 415.167 97.089 413.917 96.3856C412.191 95.2767 410.539 94.058 408.97 92.7369C408.575 91.4535 409.523 90.7067 410.204 89.9225C413.723 85.7841 417.679 82.0372 422.002 78.7468C423.333 77.762 424.708 76.242 426.739 77.3653Z" fill="#E4706D"/>
<path d="M426.742 77.3655C424.265 77.4338 422.634 79.1863 420.936 80.585C416.51 84.1864 412.49 88.2607 408.949 92.7353C406.664 93.2705 405.818 92.2673 406.728 90.2345C410.578 81.835 416.687 75.7495 425.373 72.3678C425.744 72.2317 426.136 72.1591 426.531 72.153C428.291 72.1295 430.519 71.8114 431.053 73.9218C431.653 76.2832 429.154 76.1436 427.768 76.8232L426.742 77.3655Z" fill="#231D1E"/>
<path d="M536.562 200.331C539.413 203.452 541.732 207.019 543.427 210.891C545.675 219.786 545.423 228.359 539.806 235.989C531.246 247.578 519.251 250.453 505.169 244.598C496.578 239.489 491.63 232.047 490.7 222.039C491.315 218.755 491.237 215.422 492.123 212.12C496.35 196.822 517.429 186.249 534.632 199.034C535.244 199.496 535.907 199.906 536.562 200.331Z" fill="#1D1D20"/>
<path d="M278.677 105.397C283.487 102.342 288.817 100.304 293.866 97.7197L296.718 96.2484C296.579 100.102 299.796 102.335 301.448 105.202C304.227 109.997 303.865 114.458 302.56 119.31C301.415 123.66 299.969 127.812 295.673 130.093C293.776 128.782 293.212 126.559 292.01 124.774C291.215 123.45 291.035 121.757 289.509 120.857C288.752 120.423 288.978 119.681 289.326 119.012C290.99 115.773 289.141 113.778 286.875 111.828C284.24 109.555 282.6 106.056 278.677 105.397Z" fill="#AF775C"/>
<path d="M292.012 124.779C294.379 125.763 295.035 127.923 295.675 130.097C295.337 131.432 295.114 132.808 294.133 133.869C290.395 135.815 287.888 135.571 284.709 132.882C284.167 132.426 283.731 131.852 282.957 132.415C280.909 132.859 279.725 134.568 278.122 135.674C277.635 136.014 277.098 136.383 276.526 135.821C276.369 135.627 276.281 135.386 276.275 135.136C276.269 134.886 276.347 134.642 276.495 134.441C278.624 130.471 281.241 126.906 285.367 124.865C287.555 123.775 289.785 124.004 292.012 124.779Z" fill="#1F1D21"/>
<path d="M373.521 113.11C371.45 112.76 370.522 111.513 370.651 109.432C370.8 107.116 372.258 106.03 374.342 106.215C374.815 106.225 375.28 106.336 375.706 106.541C376.133 106.746 376.51 107.04 376.813 107.403C377.116 107.766 377.338 108.19 377.463 108.646C377.588 109.102 377.614 109.58 377.539 110.047C377.312 112.159 375.683 113.112 373.521 113.11Z" fill="#F4F4F2"/>
<path d="M519.712 196.865C522.801 197.07 525.818 197.888 528.588 199.271C531.358 200.653 533.825 202.573 535.846 204.918C537.866 207.262 539.401 209.986 540.359 212.929C541.317 215.873 541.681 218.977 541.428 222.062C540.506 234.976 528.846 245.237 516.18 244.28C509.912 243.782 504.091 240.836 499.979 236.079C495.866 231.322 493.792 225.137 494.205 218.863C495.228 205.387 506.29 195.854 519.712 196.865Z" fill="#9A9B9E"/>
<path d="M516.073 240.327C504.939 239.423 496.987 229.955 497.78 218.536C498.523 207.912 508.378 199.596 519.189 200.474C521.833 200.651 524.414 201.355 526.783 202.542C529.151 203.73 531.259 205.379 532.982 207.391C534.706 209.404 536.01 211.74 536.819 214.263C537.629 216.786 537.926 219.445 537.695 222.084C537.205 227.354 534.663 232.219 530.618 235.632C526.574 239.045 521.35 240.731 516.073 240.327Z" fill="#1B1B20"/>
<path d="M533.546 216.024C535.451 224.756 533.532 229.566 526.129 234.604C521.739 235.459 517.192 234.949 513.1 233.142C510.72 232.144 508.591 230.631 506.866 228.71C505.142 226.79 503.865 224.511 503.127 222.037C500.634 213.725 507.057 206.12 515.973 205.949C523.923 205.778 529.931 208.753 533.546 216.024Z" fill="#6F7073"/>
<path d="M533.545 216.021C530.838 213.465 528.86 210.018 525.273 208.547C518.42 205.741 508.637 205.462 504.528 213.642C502.185 218.307 503.528 222.938 506.813 227.054C511.126 232.473 516.868 234.317 523.506 234.024C524.476 233.976 525.453 233.454 526.129 234.594C519.887 239.576 505.337 236.462 501.923 226.214C499.006 217.463 504.131 205.46 515.361 204.107C524.015 203.059 530.977 207.45 533.545 216.021Z" fill="#555659"/>
<path d="M668.02 180.693C667.002 180.753 666.633 181.482 666.565 182.347C666.377 185.068 665.419 187.655 665.163 190.331C664.929 192.804 663.761 193.849 661.394 194.143C659.178 194.406 656.992 194.955 654.798 195.368C654.33 195.408 653.866 195.488 653.411 195.609C652.778 195.857 651.904 196 651.904 196.864C651.904 197.729 652.59 198.014 653.313 198.165C655.62 198.661 657.927 199.135 660.233 199.623C661.153 199.826 662.065 200.067 662.985 200.27C664.319 200.563 664.877 201.383 665.08 202.743C665.45 205.299 666.007 207.826 666.512 210.359C666.716 211.382 666.821 212.772 668.103 212.757C669.384 212.742 669.611 211.344 669.837 210.359C670.259 208.532 670.455 206.653 670.764 204.796C671.435 200.796 671.91 200.36 675.814 199.638C678.136 199.202 680.428 198.684 682.727 198.135C683.48 197.969 684.091 197.563 684.023 196.706C683.955 195.849 683.269 195.541 682.576 195.413C679.794 194.917 677.02 194.293 674.216 194.007C672.302 193.812 671.601 192.947 671.292 191.166C670.794 188.271 670.048 185.422 669.407 182.557C669.226 181.768 669.007 180.948 668.02 180.693Z" fill="#4E1F11"/>
<path d="M467.482 27.4995C466.464 27.5597 466.087 28.2889 466.027 29.1535C465.831 31.875 464.881 34.4612 464.625 37.1377C464.384 39.6111 463.223 40.6561 460.856 40.9493C458.64 41.2125 456.454 41.7613 454.26 42.1748C453.789 42.2152 453.323 42.2957 452.866 42.4153C452.24 42.6634 451.358 42.8063 451.358 43.6709C451.358 44.5354 452.052 44.8211 452.775 44.9715C455.082 45.4677 457.389 45.9413 459.695 46.43C460.615 46.633 461.527 46.8736 462.447 47.0765C463.781 47.3698 464.339 48.1892 464.535 49.55C464.904 52.1061 465.469 54.6322 465.974 57.1658C466.178 58.1882 466.276 59.5791 467.565 59.564C468.854 59.549 469.072 58.1507 469.299 57.1658C469.721 55.3389 469.909 53.4594 470.226 51.6024C470.897 47.6028 471.364 47.1668 475.276 46.445C477.59 46.0165 479.889 45.4902 482.189 44.9414C482.942 44.776 483.553 44.37 483.485 43.513C483.417 42.6559 482.769 42.3477 482.03 42.2199C479.249 41.7237 476.482 41.0997 473.671 40.814C471.763 40.6185 471.062 39.754 470.753 37.9722C470.256 35.0777 469.51 32.2284 468.869 29.364C468.68 28.5746 468.447 27.7777 467.482 27.4995Z" fill="#4E1F11"/>
<path d="M279.98 356.792C279.98 352.912 277.719 350.522 274.003 350.499C270.987 350.499 267.882 353.506 267.852 356.513C267.821 359.521 270.905 362.588 273.942 362.581C277.576 362.573 279.973 360.273 279.98 356.792Z" fill="#FF9944"/>
<path d="M594.641 146.367C595.441 146.367 596.233 146.209 596.97 145.901C597.708 145.593 598.377 145.142 598.938 144.574C599.499 144.006 599.941 143.332 600.239 142.592C600.537 141.852 600.684 141.06 600.672 140.262C600.639 138.773 600.047 137.35 599.012 136.275C597.978 135.201 596.577 134.552 595.086 134.458C593.474 134.469 591.928 135.101 590.772 136.222C589.616 137.343 588.939 138.866 588.882 140.473C588.853 141.242 588.98 142.009 589.257 142.728C589.534 143.447 589.955 144.102 590.493 144.653C591.032 145.204 591.678 145.641 592.391 145.935C593.104 146.23 593.869 146.377 594.641 146.367Z" fill="#FF9944"/>
<path d="M605.865 211.921C604.011 213.184 605.202 215.538 603.822 216.771C602.563 217.883 600.468 216.913 599.299 218.387C599.232 218.47 599.239 218.597 599.164 218.936C599.532 219.354 599.991 219.682 600.506 219.896C601.02 220.109 601.577 220.203 602.134 220.169C603.724 220.229 604.493 221.033 604.553 222.612C604.615 223.964 605.068 225.27 605.858 226.371C607.086 225.619 607.237 224.552 607.433 223.364C607.863 220.83 608.285 220.484 610.795 220.146C611.262 220.078 611.745 220.146 612.212 220.041C612.444 220.033 612.669 219.957 612.859 219.824C613.049 219.69 613.196 219.504 613.282 219.289C613.319 219.145 613.322 218.994 613.289 218.849C613.257 218.704 613.191 218.568 613.096 218.453C613.001 218.338 612.881 218.247 612.744 218.187C612.608 218.127 612.459 218.101 612.31 218.109C608.903 217.861 606.966 216.192 606.785 212.688C606.785 212.493 606.528 212.305 606.363 212.139C606.197 211.974 606.167 212.042 605.865 211.921Z" fill="#4E1F11"/>
<path d="M582.782 182.132C581.455 182.072 579.819 183.636 579.767 185.019C579.812 185.772 580.121 186.485 580.638 187.034C581.156 187.583 581.851 187.934 582.601 188.026C583.413 187.995 584.186 187.675 584.781 187.123C585.376 186.571 585.753 185.824 585.842 185.019C585.82 183.673 584.259 182.207 582.782 182.132Z" fill="#FF9D00"/>
<path d="M232.614 69.4071C233.414 69.4072 234.206 69.2487 234.943 68.9408C235.681 68.633 236.35 68.1819 236.911 67.6138C237.472 67.0457 237.914 66.372 238.212 65.6318C238.51 64.8917 238.657 64.0999 238.645 63.3025C238.612 61.8131 238.02 60.3903 236.985 59.3155C235.951 58.2408 234.55 57.5923 233.059 57.4985C231.447 57.5092 229.901 58.141 228.745 59.2618C227.589 60.3827 226.912 61.9059 226.855 63.513C226.827 64.282 226.955 65.0488 227.232 65.7669C227.51 66.485 227.93 67.1394 228.469 67.6905C229.007 68.2417 229.652 68.678 230.365 68.9731C231.078 69.2681 231.843 69.4158 232.614 69.4071Z" fill="#FF9944"/>
<path d="M247.867 246.501C246.532 246.433 244.897 248.005 244.851 249.388C244.89 250.147 245.195 250.868 245.713 251.425C246.231 251.982 246.93 252.338 247.686 252.433C248.503 252.399 249.28 252.073 249.876 251.513C250.471 250.954 250.844 250.2 250.927 249.388C250.897 248.05 249.344 246.576 247.867 246.501Z" fill="#FF9944"/>
<defs>
<filter id="filter0_f_3021_1671" x="342" y="150" width="336" height="336" filterUnits="userSpaceOnUse" color-interpolation-filters="sRGB">
<feFlood flood-opacity="0" result="BackgroundImageFix"/>
<feBlend mode="normal" in="SourceGraphic" in2="BackgroundImageFix" result="shape"/>
<feGaussianBlur stdDeviation="32" result="effect1_foregroundBlur_3021_1671"/>
</filter>
</defs>
</svg>
