<svg preserveAspectRatio="none" width="781.144" height="594.727" overflow="visible" style="display: block;" viewBox="0 0 781.144 594.727" fill="none" xmlns="http://www.w3.org/2000/svg">
<path id="Vector 154" opacity="0.15" d="M179.7 78.3647C39.0653 27.0316 1.30218 115.153 0 165.631V195.707C0 195.707 5.20857 241.428 28.6479 261.88C52.0872 282.332 139.854 323.736 110.685 386.363C81.5162 448.989 154.308 483.977 192.722 478.762C231.136 473.547 293.771 412.029 411.488 540.362C529.204 668.695 601.605 533.385 606.814 504.429C612.023 475.472 615.409 381.743 727.917 270.863C840.425 159.984 748.752 91.1976 688.852 70.6644C636.764 47.5651 570.093 125.591 527.381 47.5651C484.67 -30.4611 408.883 4.78757 376.329 32.1652C343.775 59.5428 320.335 129.698 179.7 78.3647Z" fill="var(--fill-0, white)"/>
</svg>
