<svg width="302" height="362" viewBox="0 0 302 362" fill="none" xmlns="http://www.w3.org/2000/svg">
<g clip-path="url(#clip0_3034_149)">
<path d="M254.762 281.684C255.234 278.791 255.715 275.897 256.182 272.999C256.667 269.451 256.837 265.867 256.689 262.29C256.663 261.151 257.069 260.61 258.068 260.15C261.516 258.504 264.833 256.599 267.99 254.449C269.972 253.144 270.429 251.611 269.911 249.39C267.844 240.821 265.338 232.364 262.403 224.051C257.417 209.465 251.332 195.275 244.201 181.605C241.843 177.087 239.303 172.681 236.028 168.745C235.457 167.981 235.082 167.088 234.938 166.145C233.766 161.276 232.066 156.549 229.868 152.047C229.077 150.362 228.433 148.455 226.035 148.253C225.173 148.177 225.188 147.241 225.021 146.543C223.657 141.323 222.359 136.082 220.792 130.912C216.229 115.853 211.043 101.016 203.919 86.9375C203.326 85.7639 203.661 85.2327 204.538 84.6004C206.002 83.4983 207.31 82.2033 208.426 80.7508C211.25 77.2553 212.183 73.2236 211.57 68.8833C211.003 64.9245 209.38 61.1907 206.87 58.073C202.15 52.0988 195.848 51.5676 189.692 55.3009C186.493 57.2383 184.115 60.0155 182.087 63.1063C181.028 64.715 181.002 64.7099 179.142 64.032C172.221 61.5027 165.042 60.3038 157.726 59.626C151.053 59.0407 144.339 59.078 137.673 59.7373C136.012 59.8989 134.361 60.1574 132.73 60.5112C131.64 60.7439 130.94 60.6074 130.443 59.4995C129.379 57.1017 128.182 54.7697 127.051 52.4175C126.778 51.8458 126.575 51.2388 126.286 50.6722C124.43 47.0452 120.8 45.4973 116.83 46.6253C115.105 47.1281 113.515 48.0121 112.179 49.2119C110.844 50.4116 109.796 51.8962 109.114 53.5554C108.432 55.2146 108.133 57.0057 108.24 58.7958C108.347 60.5859 108.857 62.3289 109.732 63.8955C110.484 65.1981 111.414 66.3899 112.495 67.4365C110.508 68.6101 108.672 69.6471 106.883 70.7499C96.8591 76.9265 86.6023 82.7237 76.3353 88.4551C73.0742 90.2898 69.9724 92.3931 67.0621 94.7429C62.3064 98.542 59.8373 103.484 59.0768 109.413C57.7433 119.844 57.8295 130.26 60.466 140.453C63.508 152.143 69.7392 161.805 80.0923 168.498C80.2748 168.619 80.432 168.781 80.7108 169.003C79.5396 170.476 78.338 171.28 76.2694 171.103C66.8695 170.309 58.1438 167.193 49.5348 163.631C47.0454 162.62 46.6043 162.655 44.9312 164.79C44.3481 165.528 43.7854 166.282 43.111 167.167C41.6878 164.749 40.5868 162.155 39.8358 159.453C39.4301 158.163 39.0296 156.878 38.1474 155.806C35.9166 153.084 32.5348 153.19 30.4561 156.033C29.6956 157.075 29.4877 158.335 29.001 159.686L21.335 155.715C19.7988 154.881 18.1963 154.175 16.5437 153.605C15.1669 153.207 13.7282 153.066 12.3001 153.19C9.07043 153.352 6.84976 156.989 8.41135 159.766C8.53403 159.907 8.62033 160.076 8.66275 160.257C8.70517 160.439 8.70239 160.628 8.65469 160.809C8.14771 161.031 7.53928 160.834 6.95117 160.849C6.15387 160.81 5.35464 160.842 4.56314 160.945C2.61115 161.35 0.877197 162.22 0.248505 164.259C-0.0580139 165.175 -0.0837708 166.161 0.17453 167.092C0.432831 168.023 0.96344 168.856 1.69855 169.484C2.50977 170.243 3.38184 170.936 4.23358 171.685C4.42627 172.297 3.77725 172.393 3.48322 172.696C1.41461 174.872 1.28281 177.699 3.18915 180.016C4.15503 181.194 5.39163 182.123 6.79398 182.722C14.5867 186.051 21.2691 191.363 28.8996 194.964C29.9389 195.47 30.0505 196.077 29.797 197.038C28.9655 200.185 28.1644 203.341 27.6473 206.564C27.5307 207.267 27.4647 207.98 27.3633 208.688C27.2807 209.201 27.3433 209.726 27.544 210.206C27.7446 210.685 28.0754 211.098 28.499 211.4C39.8459 220.642 51.7454 228.953 65.9265 233.369C67.0875 233.729 67.2244 234.214 67.0267 235.226C65.1761 244.837 63.9846 254.54 63.0112 264.262C62.5041 269.407 61.9971 274.557 61.9515 279.732C61.9515 282.686 62.0478 282.802 64.806 283.93C67.3816 284.983 67.4677 284.988 67.1838 287.719C66.4639 294.619 66.6261 301.539 66.6008 308.46C67.3765 312.506 66.3625 312.082 71.0422 313.953C73.314 314.898 75.6362 315.717 77.9983 316.407C78.5353 316.512 79.0245 316.786 79.3948 317.188C79.765 317.59 79.9969 318.1 80.0568 318.643C80.456 320.506 81.056 322.321 81.8465 324.055C83.7123 328.102 86.7088 330.834 91.0995 331.972C92.5501 332.383 94.0273 332.694 95.5206 332.903C96.5346 333.019 97.3813 333.333 97.2799 334.653C97.1937 335.842 98.1266 337.122 97.579 338.138C97.0315 339.155 95.551 339.535 94.4609 340.162C91.6797 341.709 89.0985 343.59 86.7747 345.762C86.1184 346.336 85.5691 347.021 85.1522 347.785C84.3461 349.46 84.7517 350.947 86.3741 351.832C87.0941 352.212 87.6619 352.525 87.956 353.4C88.3362 354.544 89.3908 354.994 90.5417 355.247C92.4987 355.624 94.4919 355.78 96.4839 355.712C97.4675 355.712 98.2635 355.768 98.8668 356.8C99.5766 358.009 100.935 358.161 102.233 358.216C105.341 358.278 108.447 358.018 111.501 357.442C115.258 356.82 118.985 356.021 122.717 355.252C126.448 354.483 127.538 353.335 127.853 349.51C128.202 345.155 128.471 340.794 128.425 336.419C128.425 335.407 128.273 334.355 128.623 333.302C131.893 332.746 135.316 332.498 137.476 329.412C137.906 329.202 138.28 328.894 138.568 328.513C138.856 328.131 139.05 327.687 139.133 327.217C139.524 325.699 140.518 325.285 141.968 325.31C144.817 325.36 147.666 325.386 150.516 325.31C152.224 325.259 153.431 325.735 154.004 327.455C154.126 327.876 154.337 328.266 154.622 328.599C154.907 328.932 155.26 329.201 155.657 329.387C158.587 332.508 162.329 333.818 166.477 334.269C168.281 334.461 168.317 334.486 168.505 336.242C168.748 338.695 168.9 341.153 169.154 343.602C169.215 344.069 169.154 344.544 168.976 344.98C168.799 345.416 168.51 345.799 168.139 346.091C166.513 347.512 165.173 349.228 164.19 351.149C162.126 355.277 164.296 358.737 168.93 358.737C171.327 358.681 173.665 357.993 175.709 356.744C176.53 356.274 177.032 356.238 177.61 357.134C178.734 358.881 180.311 360.292 182.174 361.216C184.815 362.551 187.244 362.228 189.449 360.29C190.774 359.07 191.848 357.604 192.613 355.975C193.672 356.552 194.641 357.083 195.574 357.574C196.903 358.297 198.347 358.788 199.843 359.026C203.808 359.531 206.094 356.613 204.614 352.895C203.807 350.809 202.575 348.914 200.994 347.33C199.097 345.468 198.611 343.501 199.275 340.976C199.731 338.962 200.069 336.924 200.289 334.871C200.466 333.646 200.847 332.721 202.317 332.802C202.634 332.781 202.947 332.723 203.25 332.63C211.595 331.112 216.29 325.836 218.273 317.919C218.734 316.083 219.57 315.198 221.386 314.646C225.798 313.328 230.102 311.673 234.259 309.694C235.653 309.026 236.662 308.176 236.636 306.497C236.535 301.438 237.534 296.41 237.078 291.498C240.018 293.931 242.239 293.901 245.23 291.169C245.935 290.527 246.538 289.773 247.486 289.459C250.118 289.292 251.887 287.881 252.998 285.584C253.647 284.295 254.184 282.979 254.762 281.684Z" fill="#371D18"/>
<path d="M122.265 191.368C126.651 194.818 131.392 197.757 135.955 200.923C136.938 201.601 137.668 201.348 138.561 200.858C152.625 193.098 166.755 185.454 180.602 177.305C193.703 169.6 206.662 161.674 219.231 153.124C222.019 151.227 221.73 152.072 220.889 148.572C216.569 130.242 210.578 112.344 202.991 95.1021C202.053 92.9977 200.963 90.9742 199.995 88.8749C199.579 87.9593 199.123 87.7114 198.16 88.1161C197.352 88.4539 196.497 88.6638 195.625 88.7383C192.922 88.9609 191.928 87.4787 192.983 84.8988C192.476 82.9968 190.483 82.6123 189.333 81.3578C188.228 80.7816 187.223 80.0318 186.356 79.1371C186.215 78.896 186.129 78.627 186.104 78.349C186.078 78.0711 186.114 77.791 186.209 77.5284C188.461 72.1309 191.208 67.1178 196.928 64.5986C199.427 63.4958 200.816 63.9916 202.246 66.3135C203.721 66.966 205.217 67.7096 205.942 65.3928C205.111 62.7471 203.506 60.4095 201.333 58.68C198.971 56.8538 196.35 56.7881 193.688 58.0426C189.956 59.798 187.284 62.6915 185.221 66.1718C184.247 67.8058 183.416 69.5206 182.539 71.2304C182.261 71.89 181.877 72.5 181.403 73.0364C181.113 73.3135 180.75 73.5019 180.357 73.579C179.963 73.6561 179.555 73.6188 179.182 73.4714C178.29 73.1881 178.052 72.4243 178.087 71.5643C178.102 71.2479 178.143 70.9333 178.209 70.6234C178.65 68.4937 178.655 68.4786 176.556 67.7956C170.032 65.757 163.302 64.4472 156.489 63.8904C150.386 63.3143 144.241 63.3685 138.15 64.0523C129.585 64.9426 121.298 67.5971 113.814 71.8476C112.8 72.4445 111.786 73.0718 110.746 73.6788C110.204 75.5556 111.851 75.7023 112.86 76.1575C117.175 78.009 121.728 79.1927 126.195 80.6344C128.396 81.3178 130.537 82.1842 132.593 83.2244C137.273 85.6627 137.749 90.5038 133.607 93.797C132.075 94.9356 130.445 95.9361 128.735 96.7866C121.028 100.914 113.251 104.88 105.473 108.902C104.363 109.474 103.07 109.863 102.634 111.259C102.431 112.387 102.888 113.435 102.999 114.527C103.699 116.318 102.958 117.79 101.985 119.206C100.063 124.123 99.45 129.324 98.5931 134.463C97.7667 139.405 98.3548 144.419 97.8022 149.371C97.7444 149.93 97.9082 150.489 98.2585 150.929C99.3435 151.435 100.54 150.863 101.64 151.278C102.624 151.521 103.531 151.941 103.481 153.114C103.425 154.369 102.37 154.738 101.377 155.092C101.302 155.122 101.223 155.139 101.143 155.143C99.7947 155.224 98.2281 154.9 97.1583 155.487C96.0885 156.074 95.5866 157.596 94.6233 158.552C90.6889 162.382 80.8022 162.645 76.9033 156.357C75.5344 154.146 75.4887 154.172 72.4669 154.794C73.3238 156.721 74.7333 158.198 76.1276 159.64C80.9087 164.602 86.8762 167.461 93.4977 169.029C100.434 170.673 107.501 170.961 114.599 170.764C115.549 170.691 116.504 170.759 117.434 170.966C118.899 171.882 120.536 171.679 122.098 171.538C130.9 170.744 139.691 169.808 148.463 168.907C148.777 168.877 149.091 168.811 149.411 168.791C150.932 168.7 152.392 168.877 153.137 170.354C153.882 171.831 152.945 172.995 151.971 173.946C148.006 177.811 143.392 180.8 138.611 183.527C133.83 186.253 128.897 188.666 123.594 190.26C123.026 190.417 122.27 190.487 122.265 191.368Z" fill="#D79E79"/>
<path d="M74.505 205.38C74.841 204.855 75.2049 204.349 75.5951 203.862C75.7888 203.628 76.0554 203.466 76.3525 203.4C76.6495 203.335 76.96 203.37 77.2346 203.501C77.5091 203.632 77.7319 203.851 77.8675 204.122C78.0032 204.394 78.0438 204.703 77.9831 205.001C77.9011 205.631 77.7757 206.254 77.6079 206.867C74.6216 218.173 72.2437 229.601 70.3069 241.129C68.9245 249.361 67.8716 257.636 67.1483 265.952C66.7934 269.999 66.5855 274.046 66.2255 278.093C66.0988 279.464 66.621 280.03 67.8885 280.475C77.3701 283.755 87.1075 286.245 97.001 287.922C106.73 289.632 116.569 290.647 126.443 290.957C127.716 290.992 128.978 291.129 130.261 291.23C131.184 291.306 131.513 290.911 131.513 289.98C131.488 282.114 131.513 274.243 131.513 266.352C130.464 266.185 130.205 267.029 129.652 267.363C128.66 268.045 127.498 268.439 126.295 268.502C125.093 268.564 123.896 268.293 122.838 267.717C121.815 267.247 120.96 266.476 120.388 265.508C119.815 264.54 119.552 263.421 119.634 262.3C119.611 261.217 119.899 260.149 120.463 259.224C121.027 258.298 121.844 257.552 122.818 257.074C123.792 256.511 124.907 256.237 126.032 256.286C127.156 256.334 128.244 256.702 129.166 257.347C129.931 257.853 130.6 258.496 131.538 259.259V245.905C129.668 247.928 127.604 248.985 125.079 248.636C123.396 248.407 121.867 247.539 120.81 246.213C119.884 245.046 119.437 243.571 119.56 242.087C119.682 240.603 120.364 239.221 121.469 238.221C124.339 235.464 127.457 235.777 131.655 239.328C132.228 235.499 132.187 231.74 132.35 227.957C132.4 226.712 131.422 226.358 130.631 225.903C126.205 223.374 122.047 220.404 117.854 217.5C107.876 210.59 98.4814 203.002 90.1766 194.104C85.3494 189.013 81.282 183.254 78.0997 177.006C77.4862 175.782 76.8271 175.291 75.4227 175.215C70.2258 174.922 65.2267 173.541 60.253 172.084C59.2694 171.796 58.3365 171.28 57.2565 171.356C55.4566 171.214 55.0967 172.727 54.5187 173.855C50.2671 182.303 46.7884 191.117 44.125 200.19C42.9234 204.237 41.7674 208.284 40.8294 212.376C40.6064 213.388 40.1805 214.374 40.8294 215.371C42.2744 216.726 44.0033 217.662 45.6917 218.664C47.8414 219.863 50.0722 218.993 52.2219 218.785C58.0576 218.229 63.6296 216.812 68.3905 213.094C71.0624 211.005 72.771 208.198 74.505 205.38Z" fill="#EE8436"/>
<path d="M208.401 220.971C207.798 220.045 207.139 219.145 206.601 218.178C206.196 217.445 206.094 216.635 206.976 216.104C207.772 215.624 208.325 216.14 208.857 216.641C209.755 217.485 210.241 218.725 211.575 219.59C211.621 218.527 211.646 217.698 211.697 216.868C211.747 216.039 212.011 215.204 212.924 215.047C213.938 214.865 214.587 215.553 214.799 216.489C215.388 219.018 216.001 221.583 216.417 224.163C218.004 233.936 219.195 243.765 220.351 253.594C220.443 254.378 220.661 255.142 220.823 255.916C221.669 256.695 222.623 256.336 223.535 256.113C236.551 253.034 249.118 248.308 260.932 242.05C261.764 241.605 262.687 241.22 262.859 240.107C261.706 235.404 260.296 230.766 258.635 226.216C253.14 210.343 246.701 194.853 238.558 180.148C237.023 177.366 235.33 174.673 233.488 172.084C232.474 170.642 232.398 170.617 230.922 171.75C224.23 176.895 217.233 181.594 210.135 186.177C199.238 193.219 188.116 199.896 176.769 206.21C171.907 208.926 167.019 211.597 162.142 214.303C161.689 214.479 161.294 214.777 161.001 215.163C161.614 216.064 162.633 216.393 163.536 216.838C177.611 223.731 192.186 229.557 207.139 234.265C207.523 234.361 207.912 234.433 208.305 234.482C209.253 234.482 209.253 233.713 209.207 233.137C208.964 229.838 209.146 226.56 209.035 223.237C208.953 222.451 208.739 221.685 208.401 220.971Z" fill="#ED8135"/>
<path d="M71.0423 296.02C70.738 299.911 70.8547 303.806 70.9206 307.701C70.9206 309.051 71.4833 309.613 72.7002 310.068C80.2378 312.861 87.9992 315.012 95.9009 316.498C106.001 318.445 116.207 319.427 126.474 320.039C138.348 320.747 150.222 320.641 162.086 320.266C176.181 319.826 190.194 318.369 203.97 315.142C213.126 312.997 222.111 310.336 230.781 306.654C232.185 306.062 232.712 305.343 232.672 303.851C232.514 298.206 232.362 292.57 231.739 286.95C230.674 286.601 229.711 287.026 228.773 287.406C215.241 292.914 201.009 295.535 186.65 297.72C166.193 300.831 145.583 301.721 124.968 300.948C108.404 300.325 91.9462 298.347 75.9653 293.572C75.4329 293.41 74.8904 293.274 74.353 293.132C71.5645 292.398 71.387 292.525 71.24 295.338C71.2191 295.576 71.152 295.808 71.0423 296.02Z" fill="#ED8135"/>
<path d="M210.738 259.3C207.661 258.516 204.578 257.747 201.506 256.943C182.615 252.005 164.753 244.508 147.509 235.443C143.646 233.42 139.818 231.316 135.808 229.059C135.062 232.125 135.26 235.029 135.143 237.892C136.015 238.216 136.315 237.442 136.811 237.143C139.808 235.327 142.87 235.772 145.172 238.408C146.085 239.424 146.601 240.734 146.628 242.099C146.655 243.463 146.191 244.792 145.319 245.844C144.336 247.065 142.944 247.89 141.4 248.169C139.856 248.448 138.262 248.161 136.913 247.362C136.375 247.048 135.899 246.648 135.164 246.132C134.631 250.447 134.885 254.58 134.733 258.829C139.625 255.536 142.637 255.46 145.126 258.45C146.118 259.615 146.632 261.11 146.567 262.636C146.502 264.163 145.863 265.609 144.777 266.685C142.323 269.215 138.784 268.967 134.728 265.709V267.677C134.728 274.837 134.736 281.993 134.753 289.146C134.753 291.2 134.753 291.26 136.877 291.169C144.761 290.921 152.635 290.633 160.494 289.93C166.761 289.368 173.017 288.771 179.253 287.866C190.671 286.207 202.018 284.168 213.162 281.133C214.024 280.703 214.13 279.939 214.009 279.109C213.137 273.15 212.178 267.201 211.6 261.202C211.534 260.49 211.231 259.82 210.738 259.3Z" fill="#ED8135"/>
<path d="M210.181 255.551C212.102 256.331 214.171 256.32 216.265 256.907C216.569 255.061 216.082 253.503 215.94 251.955C215.651 248.879 215.078 245.829 214.744 242.753C214.602 241.433 214.024 240.897 212.756 240.537C200.125 236.91 187.739 232.481 175.674 227.279C164.044 222.255 152.774 216.441 141.942 209.877C129.126 202.135 116.874 193.497 105.281 184.028C101.65 181.053 98.0252 178.053 94.7753 174.649C94.2176 174.057 93.6852 173.516 92.8233 173.394C90.4625 173.011 88.1562 172.347 85.9533 171.416C85.6339 171.29 85.2435 170.956 84.9393 171.457C84.1636 172.418 84.7162 173.278 85.208 174.082C89.5243 181.147 94.846 187.549 101.006 193.088C108.825 200.111 117.192 206.501 126.027 212.199C144.477 224.132 163.926 234.088 184.617 241.605C191.848 244.303 199.212 246.628 206.682 248.571C208.553 249.041 209.364 250.027 209.537 251.818C209.648 253.078 209.613 254.373 210.181 255.551Z" fill="#ED8235"/>
<path d="M103.014 111.29C103.235 110.861 103.591 110.518 104.028 110.313C107.364 108.649 110.756 107.091 114.006 105.255C117.048 103.55 120.222 102.068 123.3 100.414C126.235 98.8404 129.14 97.2065 132.046 95.5826C133.663 94.7249 135.054 93.4955 136.102 91.9961C138.008 89.2391 137.212 84.9444 133.749 83.0575C129.247 80.6091 124.298 79.39 119.472 77.8623C117.124 77.1237 114.838 76.2385 112.546 75.3633C111.78 75.0699 110.812 74.8069 110.792 73.6636C104.013 77.6498 97.2445 81.6563 90.4455 85.6172C85.7759 88.3336 81.0709 90.9894 76.381 93.6705C76.888 95.2134 78.262 94.7581 79.1442 94.5456C86.5212 92.7802 91.5913 96.4679 96.0226 101.678C98.2788 104.334 100.479 107.03 101.868 110.278C102.076 110.784 102.294 111.335 103.014 111.29Z" fill="#B88566"/>
<path d="M71.0421 296.02L71.2094 295.848C71.8787 295.125 70.8951 293.744 72.0511 293.319C72.8724 293.031 73.714 293.678 74.5354 293.941C80.5789 295.884 86.7898 297.143 93.0159 298.266C96.7424 298.965 100.509 299.47 104.266 299.931C108.11 300.437 112.003 300.437 115.806 301.246C115.883 301.256 115.962 301.256 116.039 301.246C119.391 300.973 122.681 301.752 126.017 301.752C133.115 301.752 140.213 301.625 147.286 301.792C152.072 301.904 156.833 301.509 161.564 301.15C167.222 300.72 172.895 300.224 178.543 299.455C183.71 298.757 188.886 298.1 194.048 297.376C198.104 296.805 202.129 295.859 206.135 294.913C210.454 293.901 214.754 292.889 219.033 291.675C222.762 290.576 226.41 289.224 229.954 287.628C230.537 287.375 231.064 286.986 231.729 286.96C231.455 286.242 230.775 286.561 230.284 286.424C228.6 285.959 227.094 285.2 226.522 283.445C226.172 282.362 225.655 282.382 224.757 282.635C220.392 283.86 216.026 285.089 211.631 286.207C201.762 288.722 191.76 290.685 181.672 292.085C173.333 293.245 164.939 294.122 156.488 294.715C147.093 295.378 137.699 295.687 128.289 295.434C121.119 295.241 113.981 294.614 106.857 293.754C96.739 292.559 86.7223 290.625 76.8879 287.967C75.5038 287.588 74.145 287.127 72.7811 286.687C72.0358 286.444 71.4781 286.546 71.4984 287.461C71.5745 290.324 70.7278 293.142 71.0421 296.02Z" fill="#D96533"/>
<path d="M210.181 255.551C210.647 253.498 210.029 251.505 209.74 249.511C209.618 248.641 208.817 248.5 208.132 248.323C201.643 246.775 195.295 244.746 188.998 242.566C181.393 239.941 173.995 236.895 166.634 233.703C161.006 231.265 155.525 228.528 150.131 225.645C138.003 219.175 126.19 212.194 115.177 203.893C109.039 199.384 103.207 194.473 97.721 189.192C93.0476 184.538 88.9613 179.331 85.5528 173.688C85.1371 173.01 84.7264 172.317 84.8835 171.462L80.5689 174.608C82.9068 179.502 85.8686 184.074 89.3807 188.211C96.7476 196.866 105.26 204.262 114.391 210.975C135.012 226.186 157.457 238.008 181.383 247.093C190.052 250.461 198.966 253.166 208.046 255.187C208.761 255.364 209.471 255.46 210.181 255.551Z" fill="#F8B864"/>
<path d="M229.239 161.876C228.617 159.735 227.856 157.636 226.963 155.593C226.223 153.772 226.167 153.747 224.478 154.966C215.109 161.739 205.212 167.734 195.371 173.738C182.579 181.518 169.635 189.046 156.443 196.143C151.958 198.554 147.476 200.979 142.997 203.417C142.452 203.624 141.998 204.017 141.714 204.525C144.898 206.387 147.95 208.471 151.312 210.064C154.937 208.835 158.258 206.953 161.599 205.132C176.125 197.231 190.595 189.228 204.457 180.183C212.26 175.099 219.915 169.818 227.363 164.243C228.205 163.616 228.991 162.958 229.239 161.876Z" fill="#EC8034"/>
<path d="M103.014 111.29C100.885 106.145 97.4371 101.962 93.4672 98.1372C92.2012 96.9371 90.7891 95.9004 89.2641 95.0515C86.3336 93.3821 83.2256 93.3063 80.0264 93.8678C78.7842 94.0853 77.5471 94.3736 76.3506 93.6958C73.0011 95.5131 69.9744 97.8682 67.3917 100.667C64.9226 103.358 64.0657 106.737 63.4066 110.172C63.1633 111.467 62.6055 112.767 62.9351 114.148C63.065 114.336 63.2393 114.489 63.4427 114.594C63.6461 114.699 63.8722 114.753 64.1012 114.75C65.4752 114.042 67.0317 113.561 67.4526 111.745C67.5945 111.158 68.1928 111.011 68.7961 111.037C71.6506 111.138 73.6989 114.477 72.5074 117.107C72.3513 117.38 72.284 117.695 72.3148 118.008C73.4454 119.424 74.8904 120.537 76.1883 121.766C77.9324 123.43 79.0073 125.307 79.0276 127.745C79.0276 128.368 79.0681 129.015 79.6512 129.445C80.4269 129.066 81.228 129.233 82.024 129.344C82.3473 129.047 82.6015 128.683 82.7688 128.277C82.9361 127.872 83.0124 127.435 82.9924 126.997C82.9924 124.467 84.4627 122.95 86.4096 121.665C88.1994 120.501 89.9587 119.318 91.6673 118.023C91.718 113.976 93.5432 111.831 96.9402 111.846C97.3716 111.805 97.8064 111.872 98.205 112.042C98.6036 112.211 98.9532 112.478 99.2217 112.817C100.297 114.259 101.792 114.755 103.547 114.573C103.759 113.424 103.024 112.408 103.014 111.29Z" fill="#956857"/>
<path d="M122.265 191.368C125.837 190.343 129.314 189.016 132.659 187.402C137.688 185.023 142.48 182.175 146.972 178.898C148.939 177.421 150.977 176.04 152.661 174.214C153.741 173.04 154.689 171.715 153.989 170.167C153.289 168.619 151.789 167.891 150.024 168.063C147.489 168.305 144.985 168.538 142.48 168.887C140.908 169.11 139.316 169.165 137.755 169.327C135.478 169.555 133.191 169.833 130.9 170.04C128.309 170.258 125.698 170.324 123.107 170.774C121.246 171.098 119.294 170.9 117.383 170.936C118.154 171.695 118.747 172.555 118.285 173.673C117.824 174.791 116.698 175.19 115.548 175.19C111.74 175.215 107.942 175.408 104.135 174.912C103.43 174.821 102.715 174.806 101.955 174.755C103.146 176.865 116.942 188.12 122.265 191.368Z" fill="#B97765"/>
<path d="M31.4853 191.57C32.332 189.385 33.0824 187.397 33.8733 185.429C35.6149 180.99 37.6683 176.68 40.0183 172.529C40.5506 171.609 40.6317 171.012 39.8966 170.03C38.2386 167.87 37.3058 165.311 36.525 162.711C36.2258 161.724 35.9318 160.733 35.6022 159.756C35.369 159.078 35.0952 158.168 34.3144 158.239C33.3765 158.32 33.3004 159.316 33.1838 160.105C33.1026 160.657 33.0824 161.213 32.9759 161.76C32.3776 164.795 31.034 165.528 28.2658 164.142C24.7167 162.356 21.2082 160.459 17.6794 158.628C16.5516 158.033 15.3421 157.607 14.0898 157.364C13.5321 157.257 12.9085 157.06 12.5688 157.586C12.1125 158.254 12.7108 158.78 13.0758 159.23C14.221 160.559 15.5571 161.712 17.0406 162.65C17.9206 163.187 18.7671 163.776 19.5757 164.415C20.4224 165.124 20.9141 166.014 20.255 167.142C19.7125 168.078 18.8354 168.376 17.5527 167.926C16.5843 167.582 15.6514 167.122 14.7033 166.707C12.4293 165.749 10.0281 165.126 7.57473 164.855C6.86533 164.752 6.14457 164.752 5.43517 164.855C4.32988 165.043 4.0713 165.943 4.88251 166.757C5.34016 167.199 5.86348 167.568 6.43396 167.85C8.83211 169.095 11.2607 170.288 13.6639 171.528C14.3732 171.876 15.0517 172.284 15.692 172.747C16.0875 173.029 16.3682 173.444 16.4826 173.916C16.5971 174.388 16.5378 174.885 16.3156 175.317C16.1366 175.725 15.8201 176.057 15.4209 176.257C15.0218 176.457 14.5652 176.51 14.1304 176.409C12.6448 176.151 11.1694 175.817 9.70418 175.463C8.86267 175.199 7.96466 175.171 7.10829 175.382C5.95738 175.742 5.75964 176.698 6.6317 177.532C7.43959 178.307 8.38993 178.918 9.4304 179.333C15.2458 181.645 20.3057 185.292 25.6547 188.373C27.556 189.445 29.4421 190.447 31.4853 191.57Z" fill="#AC7C61"/>
<path d="M262.864 240.107C259.163 242.601 255.081 244.397 251.046 246.233C245.254 248.811 239.299 251.008 233.219 252.81C229.594 253.918 225.908 254.833 222.242 255.845C221.774 255.924 221.298 255.954 220.823 255.936C220.767 258.971 221.391 261.92 222.04 264.854C222.415 266.559 222.496 266.605 224.291 266.372C227.929 265.983 231.534 265.325 235.075 264.404C245.274 261.692 255.013 257.485 263.974 251.919C265.835 250.756 265.865 250.741 265.272 248.535C264.537 245.702 264.066 242.814 262.864 240.107Z" fill="#F8B867"/>
<path d="M229.239 161.876C226.677 164.131 223.967 166.213 221.127 168.108C214.648 172.534 208.269 177.102 201.628 181.286C194.043 186.065 186.353 190.668 178.559 195.096C172.066 198.758 165.547 202.379 159.003 205.957C157.345 206.867 155.571 207.576 153.872 208.425C152.97 208.881 151.895 209.108 151.312 210.074C151.363 210.135 151.403 210.216 151.469 210.252C153.198 211.223 154.846 212.71 156.691 213.019C158.537 213.327 160.24 211.501 161.949 210.59C174.325 203.857 186.595 196.932 198.565 189.516C209.126 182.965 219.484 176.116 229.381 168.594C230.73 167.582 231.227 167.714 230.426 165.488C230.005 164.289 229.64 163.075 229.239 161.876Z" fill="#F9B966"/>
<path d="M40.8245 215.371C41.5546 211.324 42.6903 207.388 43.8108 203.453C46.6329 193.241 50.4415 183.327 55.183 173.85C55.69 172.868 56.0652 171.786 57.2415 171.361C54.5949 169.899 51.6187 169.226 48.9316 167.875C48.0494 167.43 47.8009 168.108 47.4765 168.609C46.0619 170.814 44.5003 172.944 43.2936 175.261C38.5024 184.437 34.6136 193.978 32.4842 204.141C31.5969 208.37 31.5412 208.385 34.9128 210.98C36.8343 212.462 38.6393 214.192 40.8245 215.371Z" fill="#F8B863"/>
<path d="M91.5204 117.967C91.2834 117.971 91.0487 118.013 90.8258 118.094C88.4733 119.52 86.1157 120.947 84.0623 122.803C83.0178 123.749 82.3334 124.877 82.4804 126.344C82.592 127.401 81.9024 128.317 82.0241 129.379C82.8201 131.312 82.6782 133.386 82.9114 135.399C83.2663 138.434 83.7885 141.378 85.4464 143.999C88.4327 148.632 92.7169 150.924 98.223 150.964C98.9785 147.206 98.5729 143.377 98.7757 139.608C98.9363 136.7 99.2749 133.804 99.7897 130.937C100.515 126.89 101.27 122.879 102.568 118.979C102.391 118.827 102.208 118.63 101.97 118.655C98.4664 118.964 94.9985 118.417 91.5204 117.967Z" fill="#BB8666"/>
<path d="M63.8022 114.583C63.7178 114.433 63.5897 114.312 63.4349 114.236C63.2801 114.16 63.1058 114.133 62.9352 114.158C62.4738 123.263 62.7374 132.278 65.237 141.115C65.7615 143.035 66.4748 144.899 67.3664 146.68C68.0813 148.086 68.8875 149.447 69.7595 151.005C70.9966 149.938 72.3402 149.948 73.6838 149.993C74.2825 150.025 74.8809 149.924 75.4359 149.697C75.9908 149.471 76.4885 149.124 76.8931 148.683C78.8401 146.66 80.2445 144.474 79.6361 141.459C79.1192 138.479 78.9102 135.453 79.0124 132.43C79.0124 131.418 79.0124 130.356 79.6513 129.455C79.6513 128.661 79.6513 127.867 79.6006 127.078C79.4738 125.292 78.9769 123.643 77.5725 122.393C75.8791 120.876 74.5964 118.852 72.3808 117.916C71.4225 117.244 70.3527 117.836 69.3793 117.734C67.0572 117.507 64.8365 117.112 63.8022 114.583Z" fill="#BE8A69"/>
<path d="M214.13 316.907C195.619 322.229 177.058 324.081 158.192 324.683C158.491 326.504 159.546 327.384 160.783 328.148C163.08 329.564 165.691 330.06 168.276 330.323C174.287 330.949 180.342 331.023 186.367 330.546C191.432 330.199 196.469 329.508 201.44 328.477C202.983 328.133 204.506 327.707 206.003 327.202C208.366 326.412 210.362 324.795 211.621 322.649C212.671 320.835 213.512 318.909 214.13 316.907Z" fill="#A95C40"/>
<path d="M84.4577 318.693C85.852 323.499 88.0372 327.247 93.4166 328.168C96.6872 328.792 99.9892 329.24 103.308 329.509C108.306 329.894 113.32 330.018 118.331 329.878C122.681 329.681 127.062 329.574 131.341 328.547C131.968 328.431 132.559 328.169 133.065 327.782C133.572 327.396 133.98 326.895 134.256 326.322C134.854 325.087 134.692 324.662 133.379 324.688C131.062 324.738 128.78 324.369 126.479 324.253C120.212 323.949 113.95 323.448 107.719 322.674C100.155 321.776 92.6533 320.409 85.2588 318.582C84.9882 318.586 84.7191 318.623 84.4577 318.693Z" fill="#A95D42"/>
<path d="M248.166 284.548C249.489 283.632 249.824 282.489 250.163 281.376C251.02 278.563 251.426 275.665 251.928 272.776C252.435 270.019 252.212 267.212 252.597 264.48C252.79 263.109 252.521 262.887 251.223 263.377C248.779 264.313 246.386 265.401 243.871 266.154C240.079 267.323 236.342 268.684 232.418 269.356C231.465 269.523 230.897 269.943 230.791 271.051C230.613 273.019 230.223 274.972 229.969 276.934C229.83 278.363 229.982 279.805 230.415 281.173C230.699 282.185 231.282 282.332 232.225 281.735C232.747 281.367 233.175 280.882 233.473 280.319C233.802 279.777 234.106 279.216 234.431 278.669C235.06 277.602 235.78 276.59 237.23 276.965C238.832 277.374 238.568 278.74 238.528 279.904C238.452 282.079 238.974 284.153 239.542 286.222C239.749 287.031 239.881 288.175 240.916 288.245C242.026 288.311 242.371 287.183 242.776 286.338C243.717 284.246 244.361 282.032 244.688 279.762C244.735 279.21 244.874 278.67 245.098 278.164C245.453 277.496 245.879 276.944 246.736 277.01C247.593 277.076 247.943 277.683 248.227 278.366C248.501 279.118 248.535 279.936 248.323 280.708C248.046 281.969 247.992 283.268 248.166 284.548Z" fill="#9F725D"/>
<path d="M194.808 341.341C187.89 343.07 180.658 343.13 173.712 341.518C173.205 342.651 173.377 343.703 173.423 344.705C173.473 345.256 173.386 345.811 173.17 346.32C172.953 346.829 172.613 347.277 172.18 347.623C170.633 348.995 169.29 350.579 168.19 352.328C167.262 353.754 167.612 354.25 169.285 354.351C170.562 354.361 171.817 354.023 172.916 353.375C173.691 352.975 174.477 352.586 175.258 352.191C177.519 351.048 178.138 351.114 179.649 353.203C180.584 354.489 181.649 355.676 182.828 356.744C184.551 358.327 186.579 358.039 187.801 356.066C188.57 354.868 189.199 353.587 189.677 352.247C190.225 350.638 191.421 350.223 192.841 351.154C194.397 352.251 196.04 353.221 197.754 354.053C198.261 354.275 198.768 354.559 199.275 354.721C199.455 354.81 199.658 354.844 199.858 354.817C200.057 354.791 200.244 354.707 200.395 354.574C200.73 354.21 200.431 353.83 200.248 353.501C199.224 351.618 197.904 349.91 196.339 348.443C194.392 346.693 194.098 344.775 194.656 342.469C194.712 342.211 194.727 341.963 194.808 341.341Z" fill="#755042"/>
<path d="M102.436 353.749C104.746 353.797 107.056 353.69 109.352 353.431C113.408 353.041 117.317 352.156 121.277 351.407C121.743 351.321 122.179 351.109 122.641 351.003C122.922 350.979 123.183 350.846 123.366 350.632C123.549 350.418 123.64 350.14 123.619 349.859C123.584 347.163 124.354 344.523 124.126 341.801C123.984 339.904 124.015 339.889 121.997 340.283C116.8 341.295 111.578 341.194 106.35 340.541C105.093 340.385 103.815 340.597 102.573 340.101C102.339 340.034 102.09 340.043 101.862 340.128C101.633 340.212 101.438 340.368 101.306 340.572C100.038 342.018 98.3092 342.863 96.6513 344.037C97.2547 344.416 97.8022 344.219 98.3042 344.254C98.8061 344.29 99.4703 344.254 99.6275 344.983C99.7147 345.294 99.6875 345.626 99.5508 345.919C99.4141 346.213 99.177 346.447 98.8822 346.581C97.6045 347.234 96.3218 347.871 95.0289 348.483C93.7123 349.041 92.5854 349.967 91.784 351.149C92.869 351.716 94.025 351.149 94.9985 351.483C97.0924 352.156 98.4766 351.63 99.7998 349.783C101.052 348.033 103.192 347.193 105.174 346.359C105.97 346.025 106.969 345.919 107.552 346.814C108.211 347.826 107.628 348.635 106.837 349.283C105.737 350.188 104.616 351.078 103.471 351.918C103.158 352.113 102.9 352.382 102.72 352.702C102.539 353.022 102.441 353.382 102.436 353.749Z" fill="#754F41"/>
<path d="M74.5051 205.38C72.9537 206.392 72.0664 208.051 71.022 209.467C68.4007 213.008 64.8314 215.032 60.8159 216.367C55.9182 218.011 50.8278 218.537 45.6867 218.659C50.5642 222.306 56.0247 224.886 61.5967 227.259C63.1979 227.965 64.8362 228.585 66.5045 229.115C67.8582 229.535 68.2943 229.257 68.5326 227.941C70.0111 220.295 72.0065 212.757 74.5051 205.38Z" fill="#D76334"/>
<path d="M210.738 259.3C211.205 263.908 211.585 268.532 212.401 273.1C212.817 275.417 213.192 277.74 213.527 280.071C213.573 280.415 213.279 280.804 213.147 281.168C217.061 280.435 220.752 278.978 224.6 277.961C224.993 277.906 225.35 277.703 225.598 277.393C225.846 277.084 225.966 276.692 225.934 276.297C225.939 274.787 226.08 273.28 226.354 271.795C226.542 270.955 226.096 270.656 225.295 270.692C224.179 270.732 223.064 270.773 221.954 270.753C219.87 270.707 219.337 270.348 218.633 268.365C218.033 266.473 217.577 264.538 217.269 262.578C216.807 260.14 216.792 260.104 214.272 259.785C213.081 259.639 211.945 259.143 210.738 259.3Z" fill="#DB6635"/>
<path d="M189.185 81.6714C190.113 83.1486 191.822 83.6949 192.983 84.9191C194.034 84.5636 195.104 84.2647 196.187 84.0237C201.764 82.3645 205.729 79.0814 207.108 73.2134C207.722 70.563 207.305 67.779 205.942 65.4232C204.832 67.0116 203.453 66.4349 202.079 65.8936C199.721 65.666 197.663 66.2275 196.116 68.1447C196.456 74.0026 194.306 78.5958 189.185 81.6714Z" fill="#C69171"/>
<path d="M126.773 61.3914C125.196 58.6497 123.807 55.8269 122.453 52.9385C121.403 50.7026 119.918 50.2068 117.535 51.0162C113.073 52.5338 111.071 58.6497 113.788 62.4588C116.075 65.6609 116.232 65.7064 119.872 64.0421C120.09 63.9231 120.302 63.7931 120.506 63.6526C119.182 61.7552 117.97 59.7823 116.876 57.7442C116.622 57.2383 116.369 56.7628 116.141 56.2266C116.029 56.0144 115.992 55.7712 116.035 55.5356C116.078 55.2999 116.199 55.0855 116.379 54.9265C116.548 54.7601 116.766 54.6513 117.001 54.6159C117.236 54.5804 117.476 54.6201 117.687 54.7292C118.742 55.0985 119.34 55.9332 119.903 56.7982C120.805 58.1994 121.667 59.626 122.57 61.0221C123.639 62.6763 123.655 62.6662 125.571 62.1249C125.815 62.104 126.05 62.0268 126.259 61.8995C126.467 61.7722 126.643 61.5983 126.773 61.3914Z" fill="#D39C79"/>
<path d="M196.187 333.869C188.734 334.881 181.484 335.437 174.163 335.027C173.656 334.997 172.966 334.769 172.875 335.619C172.784 336.469 172.819 337.253 173.889 337.451C175.76 337.8 177.621 338.31 179.507 338.462C184.024 338.796 188.547 338.862 192.998 337.683C195.68 336.95 195.695 337.005 196.187 333.869Z" fill="#DAA481"/>
<path d="M115.36 334.086C111.304 334.299 107.075 333.828 102.862 333.727C101.706 333.702 101.219 334.557 101.716 335.569C101.811 335.74 101.949 335.884 102.118 335.986C102.286 336.087 102.478 336.142 102.674 336.145C108.039 336.955 113.418 337.45 118.843 336.879C120.181 336.737 121.5 336.373 122.843 336.267C123.959 336.166 124.364 335.66 124.273 334.582C124.167 333.409 123.294 333.768 122.661 333.778C120.273 333.813 117.905 334.238 115.36 334.086Z" fill="#DFA780"/>
<path d="M82.8809 147.661C81.8263 149.204 81.2889 150.656 80.067 151.607C79.5093 152.042 79.5955 152.502 79.8388 153.069C80.2316 154.114 80.9563 155.002 81.9024 155.598C83.1944 156.375 84.6562 156.827 86.1621 156.915C87.668 157.003 89.1727 156.725 90.5469 156.104C90.9537 155.986 91.3234 155.766 91.6207 155.465C91.9181 155.164 92.1331 154.792 92.2454 154.384C88.4174 153.307 85.3906 151.02 82.8809 147.661Z" fill="#F4ADAD"/>
<path d="M208.401 220.971C208.401 224.436 208.442 227.906 208.284 231.366C208.234 232.413 209.405 233.44 208.32 234.467C210.133 235.179 211.997 235.752 213.897 236.182C213.36 232.302 212.837 228.594 212.33 224.876C212.284 224.565 212.173 224.267 212.004 224.002C211.836 223.736 211.613 223.508 211.352 223.333C210.348 222.579 209.38 221.76 208.401 220.971Z" fill="#DF6330"/>
<path d="M126.139 265.497C126.534 265.483 126.922 265.39 127.281 265.224C127.639 265.058 127.961 264.822 128.227 264.53C128.493 264.239 128.697 263.897 128.829 263.525C128.961 263.153 129.017 262.759 128.993 262.365C128.966 261.533 128.613 260.745 128.01 260.17C127.408 259.594 126.603 259.276 125.769 259.285C125.352 259.29 124.941 259.38 124.56 259.548C124.179 259.716 123.836 259.959 123.552 260.263C123.268 260.567 123.048 260.925 122.906 261.316C122.765 261.707 122.703 262.122 122.727 262.537C122.816 263.369 123.217 264.137 123.85 264.686C124.483 265.235 125.301 265.524 126.139 265.497Z" fill="#EC863B"/>
<path d="M137.065 242.192C137.091 243.033 137.447 243.83 138.055 244.412C138.664 244.995 139.477 245.316 140.32 245.308C141.12 245.308 141.888 244.994 142.457 244.433C143.026 243.873 143.351 243.111 143.362 242.313C143.403 240.411 142.171 239.116 140.32 239.111C139.48 239.093 138.667 239.407 138.058 239.984C137.448 240.56 137.092 241.354 137.065 242.192Z" fill="#ED893F"/>
<path d="M125.921 245.581C126.336 245.604 126.752 245.539 127.141 245.39C127.53 245.241 127.883 245.012 128.176 244.718C128.47 244.424 128.699 244.071 128.846 243.683C128.994 243.295 129.058 242.879 129.034 242.465C128.991 241.631 128.63 240.845 128.025 240.268C127.419 239.692 126.616 239.368 125.779 239.364C124.99 239.453 124.256 239.811 123.702 240.378C123.148 240.945 122.807 241.686 122.737 242.475C122.739 242.888 122.824 243.297 122.986 243.677C123.148 244.057 123.383 244.402 123.68 244.69C123.976 244.979 124.326 245.207 124.711 245.359C125.096 245.512 125.507 245.588 125.921 245.581Z" fill="#EC853C"/>
<path d="M140.193 265.461C140.613 265.468 141.029 265.389 141.417 265.23C141.805 265.07 142.157 264.834 142.45 264.535C142.744 264.236 142.973 263.88 143.125 263.49C143.276 263.1 143.347 262.683 143.332 262.264C143.353 261.887 143.298 261.509 143.17 261.153C143.043 260.797 142.845 260.47 142.589 260.191C142.333 259.913 142.024 259.688 141.679 259.531C141.335 259.373 140.962 259.286 140.584 259.275C139.742 259.232 138.915 259.506 138.267 260.043C137.619 260.58 137.197 261.34 137.085 262.173C136.969 263.782 138.495 265.401 140.193 265.461Z" fill="#ED823B"/>
<path d="M101.625 151.253C100.56 150.524 99.3739 150.944 98.2432 150.904C99.308 151.607 100.484 151.278 101.625 151.253Z" fill="#BB8666"/>
<path d="M156.184 110.89C157.242 110.909 158.293 110.717 159.276 110.327C160.258 109.936 161.153 109.354 161.908 108.615C162.664 107.876 163.264 106.994 163.674 106.021C164.084 105.048 164.295 104.003 164.296 102.948C164.311 101.852 164.106 100.764 163.693 99.7482C163.281 98.7321 162.67 97.8083 161.896 97.0307C161.122 96.253 160.2 95.6372 159.184 95.2192C158.169 94.8012 157.08 94.5894 155.981 94.5962C151.469 94.6418 147.616 98.4104 147.651 102.725C147.697 107.273 151.464 110.875 156.184 110.89Z" fill="#391D19"/>
<path d="M91.5203 117.967C94.7398 119.793 98.1976 119.51 101.66 119.12C101.97 119.085 102.279 119.004 102.588 118.943C104.109 117.76 104.545 116.333 103.542 114.588C102.822 114.274 102.203 113.713 101.377 113.647C100.983 113.658 100.598 113.529 100.291 113.283C99.9841 113.036 99.7758 112.688 99.7034 112.301C99.5108 111.487 98.8111 111.29 98.0405 111.234C96.3686 111.067 94.688 111.454 93.2594 112.337C90.9728 113.758 90.486 115.337 91.5203 117.967Z" fill="#371D18"/>
<path d="M196.395 68.3318C197.536 67.1633 199.032 66.7333 200.553 66.4096C201.078 66.3025 201.589 66.1326 202.074 65.9037C202.667 64.892 202.266 64.3861 201.298 63.9511C200.113 63.4517 198.791 63.3767 197.556 63.7386C196.002 64.1269 194.564 64.8815 193.363 65.9391C189.999 68.891 187.408 72.6174 185.814 76.7949C185.449 77.7712 185.069 78.7577 185.844 79.7289C186.044 79.8624 186.271 79.9516 186.508 79.9907C186.745 80.0298 186.988 80.0178 187.221 79.9555C187.453 79.8932 187.669 79.7821 187.855 79.6296C188.041 79.4771 188.192 79.2868 188.298 79.0713C190.646 75.2166 193.551 71.797 196.395 68.3318Z" fill="#371C17"/>
<path d="M196.395 68.3318C194.682 69.2424 193.526 70.76 192.339 72.227C190.828 74.1452 189.463 76.1744 188.258 78.2973C187.71 79.2585 187.076 79.9768 185.839 79.734C186.995 80.2955 187.73 81.5804 189.165 81.6714C190.6 81.7625 191.538 80.8418 192.446 80.0173C195.417 77.321 196.502 73.7547 196.826 69.9C196.828 69.3479 196.679 68.8057 196.395 68.3318Z" fill="#B57A66"/>
<path d="M164.803 116.035C164.859 117.431 167.551 119.257 168.935 118.842C169.055 118.825 169.168 118.778 169.265 118.705C169.361 118.632 169.436 118.535 169.484 118.424C169.532 118.314 169.551 118.192 169.538 118.072C169.525 117.952 169.482 117.838 169.412 117.739C168.674 116.511 167.592 115.525 166.299 114.902C165.427 114.522 164.768 115.058 164.803 116.035Z" fill="#B47360"/>
<path d="M160.271 115.61C160.074 115.606 159.88 115.653 159.708 115.748C159.535 115.842 159.391 115.979 159.288 116.147C159.185 116.314 159.129 116.505 159.123 116.701C159.118 116.897 159.164 117.091 159.257 117.264C160.007 118.574 161.285 119.237 162.674 119.652C163.434 119.889 163.83 119.262 163.774 118.523C163.673 117.557 161.295 115.61 160.271 115.61Z" fill="#B37662"/>
<path d="M63.8021 114.583C63.9137 117.006 64.5119 117.618 66.7884 117.972C68.6745 118.25 70.5403 118.645 72.4061 117.922C74.353 115.898 74.3479 114.492 72.4517 112.458C71.5964 111.522 70.5112 110.825 69.3032 110.435C67.8532 109.974 67.0622 110.435 66.7225 111.907C66.5704 112.575 66.5045 113.116 65.7085 113.242C64.9125 113.369 64.4106 114.092 63.8021 114.583Z" fill="#3A1F19"/>
<path d="M27.0185 171.31C26.9931 173.266 27.5336 175.187 28.5751 176.844C28.7351 177.165 28.9616 177.448 29.2396 177.675C29.5175 177.901 29.8406 178.067 30.1874 178.16C31.2724 178.367 31.8909 177.826 31.7895 176.733C31.7975 176.574 31.7698 176.415 31.7084 176.268C30.5013 174.194 30.0047 171.784 30.2938 169.403C30.3167 169.244 30.3057 169.081 30.2613 168.927C30.217 168.772 30.1404 168.628 30.0365 168.505C29.9326 168.382 29.8039 168.282 29.6586 168.212C29.5134 168.141 29.3549 168.103 29.1936 168.098C28.8778 168.023 28.5457 168.063 28.2561 168.209C27.9666 168.355 27.7383 168.599 27.6117 168.897C27.2453 169.651 27.0431 170.473 27.0185 171.31Z" fill="#3A1F19"/>
</g>
<defs>
<clipPath id="clip0_3034_149">
<rect width="302" height="362" fill="white" transform="matrix(-1 0 0 1 302 0)"/>
</clipPath>
</defs>
</svg>
