<svg width="48" height="48" viewBox="0 0 48 48" fill="none" xmlns="http://www.w3.org/2000/svg">
<path d="M6 23.982C6 35.258 14.478 40.732 19.798 43.054C21.24 43.684 21.962 44 24 44V16L6 22V23.982Z" fill="#F7622C"/>
<path d="M28.202 43.054C33.522 40.73 42 35.26 42 23.982V22L24 16V44C26.04 44 26.76 43.684 28.202 43.054ZM17.676 5.61L16.53 6C10.516 8.06 7.51 9.09 6.756 10.164C6 11.24 6 14.44 6 20.834V22L24 16V4C22.378 4 20.81 4.536 17.676 5.61Z" fill="#FFB69C"/>
<path d="M31.47 6L30.324 5.61C27.19 4.536 25.624 4 24 4V16L42 22V20.834C42 14.438 42 11.24 41.244 10.164C40.49 9.09 37.484 8.058 31.47 6Z" fill="#F7622C"/>
</svg>
