<svg width="48" height="48" viewBox="0 0 48 48" fill="none" xmlns="http://www.w3.org/2000/svg">
<g clip-path="url(#clip0_3023_247)">
<path fill-rule="evenodd" clip-rule="evenodd" d="M15.7456 11.1479H33.7456L23.7456 22.1479L15.7456 11.1479Z" fill="#FFB69C"/>
<path fill-rule="evenodd" clip-rule="evenodd" d="M32.7456 37.1479H14.7456L24.7456 26.1479L32.7456 37.1479Z" fill="#FFB69C"/>
<path fill-rule="evenodd" clip-rule="evenodd" d="M21.3257 23.6779L21.6957 23.9979L21.3257 24.3179C17.3757 27.7279 14.0857 31.8279 11.6357 36.4379C11.4157 36.8579 11.3057 37.3179 11.3057 37.7979C11.3057 38.2679 11.4257 38.7379 11.6557 39.1479C11.8757 39.5579 12.2057 39.9179 12.5957 40.1779C12.9857 40.4379 13.4457 40.5979 13.9157 40.6379L16.2657 40.8379C21.4157 41.2879 26.5957 41.2879 31.7457 40.8379L34.0957 40.6379C34.5657 40.5979 35.0157 40.4379 35.4157 40.1779C35.8057 39.9179 36.1357 39.5679 36.3557 39.1479C36.5757 38.7379 36.6957 38.2679 36.7057 37.7979C36.7057 37.3279 36.5957 36.8579 36.3757 36.4479C33.9257 31.8479 30.6357 27.7379 26.6857 24.3279L26.3157 24.0079L26.6857 23.6879C30.6357 20.2879 33.9157 16.1779 36.3757 11.5779C36.5957 11.1579 36.7157 10.6979 36.7157 10.2279C36.7157 9.75794 36.5957 9.28794 36.3657 8.87794C36.1457 8.46794 35.8157 8.10794 35.4257 7.84794C35.0357 7.58794 34.5757 7.42794 34.1057 7.38794L31.7557 7.18794C26.5857 6.72794 21.4057 6.72794 16.2557 7.17794L13.9057 7.37794C13.4357 7.41794 12.9857 7.57794 12.5857 7.83794C12.1857 8.09794 11.8657 8.44794 11.6457 8.86794C11.4257 9.27794 11.3057 9.73794 11.3057 10.2079C11.3057 10.6779 11.4157 11.1479 11.6357 11.5579C14.0857 16.1579 17.3757 20.2679 21.3257 23.6679V23.6779ZM23.9957 19.4979C23.5957 19.4979 23.2157 19.3379 22.9357 19.0579L18.9357 15.0579C18.7257 14.8479 18.5857 14.5779 18.5257 14.2879C18.4657 13.9979 18.4957 13.6979 18.6157 13.4179C18.7257 13.1479 18.9257 12.9079 19.1657 12.7479C19.4157 12.5879 19.7057 12.4979 19.9957 12.4979H27.9957C28.2957 12.4979 28.5857 12.5879 28.8257 12.7479C29.0757 12.9079 29.2657 13.1479 29.3757 13.4179C29.4857 13.6879 29.5157 13.9979 29.4657 14.2879C29.4057 14.5779 29.2657 14.8479 29.0557 15.0579L25.0557 19.0579C24.7757 19.3379 24.3957 19.4979 23.9957 19.4979ZM23.9957 28.4979C23.5957 28.4979 23.2157 28.6579 22.9357 28.9379L18.9357 32.9379C18.7257 33.1479 18.5857 33.4179 18.5257 33.7079C18.4657 33.9979 18.4957 34.2979 18.6157 34.5779C18.7257 34.8479 18.9257 35.0879 19.1657 35.2479C19.4157 35.4079 19.7057 35.4979 19.9957 35.4979H27.9957C28.2957 35.4979 28.5857 35.4079 28.8257 35.2479C29.0757 35.0879 29.2657 34.8479 29.3757 34.5779C29.4857 34.3079 29.5157 33.9979 29.4657 33.7079C29.4057 33.4179 29.2657 33.1479 29.0557 32.9379L25.0557 28.9379C24.7757 28.6579 24.3957 28.4979 23.9957 28.4979Z" fill="#F7622C"/>
</g>
<defs>
<clipPath id="clip0_3023_247">
<rect width="25.39" height="34.33" fill="white" transform="translate(11.3057 6.83789)"/>
</clipPath>
</defs>
</svg>
