<svg width="48" height="49" viewBox="0 0 48 49" fill="none" xmlns="http://www.w3.org/2000/svg">
<circle cx="29.5" cy="18.5" r="17.5" fill="#FFB69C"/>
<path fill-rule="evenodd" clip-rule="evenodd" d="M10.8111 18.5886L29.4114 41.6637C30.5798 41.6637 31.7247 41.5819 32.8464 41.4066C31.1873 43.3812 29.1427 44.9935 26.841 46.1268C24.5276 47.2718 22.0157 47.9144 19.4453 48.0312C16.8749 48.1481 14.3045 47.7275 11.8977 46.8045C9.49085 45.8815 7.3177 44.4561 5.48338 42.6451C3.66074 40.8341 2.23534 38.6493 1.28896 36.2542C0.342593 33.859 -0.0897005 31.2886 0.0154519 28.7182C0.120604 26.1479 0.751519 23.6242 1.88483 21.3108C3.01814 18.9975 4.60711 16.9412 6.58164 15.2821C6.10261 18.5535 6.33628 21.895 7.27097 25.073C8.19397 28.2509 9.80631 31.1952 11.9678 33.6955C14.1292 36.1957 16.8165 38.2053 19.8192 39.584C22.8335 40.9627 26.1049 41.6754 29.4114 41.6754L10.8111 18.5886Z" fill="#FFB69C"/>
<path fill-rule="evenodd" clip-rule="evenodd" d="M48 18.5886C48 21.0305 47.5209 23.449 46.5863 25.7039C45.6516 27.9589 44.2846 30.0152 42.5554 31.7327C40.8262 33.4618 38.7816 34.8288 36.5267 35.7635C34.2717 36.6982 31.8532 37.1772 29.4114 37.1772C26.9695 37.1772 24.551 36.6982 22.2961 35.7635C20.0411 34.8288 17.9848 33.4618 16.2673 31.7327C14.5381 30.0035 13.1712 27.9589 12.2365 25.7039C11.3018 23.449 10.8228 21.0305 10.8228 18.5886C10.8228 13.6581 12.7856 8.92627 16.2673 5.44456C19.749 1.96284 24.4809 0 29.4114 0C34.3418 0 39.0737 1.96284 42.5554 5.44456C46.0371 8.92627 48 13.6581 48 18.5886ZM29.4114 4.5566C30.1241 4.5566 30.8017 4.83701 31.3041 5.33941C31.8065 5.8418 32.0869 6.51945 32.0869 7.23215V8.36546C33.1151 8.61081 34.0614 9.11321 34.8559 9.81422C35.6387 10.5269 36.2346 11.4149 36.5968 12.408C36.8305 13.0739 36.7954 13.8217 36.4916 14.4643C36.1879 15.1069 35.6387 15.5976 34.9611 15.843C34.2951 16.0766 33.5474 16.0416 32.9048 15.7378C32.2622 15.434 31.7715 14.8849 31.5261 14.2073C31.456 14.0203 31.3392 13.8567 31.1756 13.7399C31.012 13.6231 30.8134 13.5647 30.6148 13.5647H27.799C27.6588 13.5647 27.5186 13.6231 27.4135 13.7165C27.3083 13.81 27.2382 13.9385 27.2265 14.0787C27.2148 14.2189 27.2499 14.3591 27.3317 14.476C27.4135 14.5928 27.5303 14.6746 27.6705 14.698L31.9701 15.6327C33.3721 15.9364 34.6222 16.7075 35.5219 17.8292C36.4215 18.9391 36.9239 20.3295 36.9356 21.7665C36.9473 23.2036 36.4799 24.594 35.592 25.7273C34.7157 26.8606 33.4656 27.6551 32.0752 27.9939V29.1272C32.0752 29.8399 31.7948 30.5176 31.2924 31.02C30.79 31.5224 30.1124 31.8028 29.3997 31.8028C28.687 31.8028 28.0093 31.5224 27.5069 31.02C27.0045 30.5176 26.7241 29.8399 26.7241 29.1272V27.9939C25.696 27.7485 24.7496 27.2462 23.9551 26.5451C23.1723 25.8324 22.5765 24.9445 22.2143 23.9514C22.0857 23.6126 22.0156 23.262 22.0273 22.8999C22.0273 22.5377 22.1208 22.1872 22.2727 21.86C22.4246 21.5329 22.6349 21.2408 22.9036 20.9954C23.1723 20.7501 23.4761 20.5631 23.8149 20.4463C24.1537 20.3295 24.5159 20.271 24.8781 20.2944C25.2403 20.3178 25.5908 20.4112 25.9063 20.5748C26.2334 20.7384 26.5138 20.9604 26.7475 21.2291C26.9812 21.4978 27.1564 21.825 27.2733 22.1638C27.3434 22.3507 27.4602 22.5143 27.6238 22.6311C27.7873 22.748 27.986 22.8064 28.1846 22.8064H30.6148C30.8484 22.8064 31.0821 22.7129 31.2574 22.5493C31.4326 22.3858 31.5378 22.1755 31.5611 21.9418C31.5845 21.7081 31.5261 21.4745 31.3859 21.2758C31.2457 21.0772 31.0471 20.9487 30.8134 20.8903L26.5138 19.9556C25.1702 19.6635 23.9785 18.9157 23.1256 17.8409C22.2727 16.766 21.817 15.434 21.8404 14.0554C21.8638 12.6884 22.3545 11.3681 23.2424 10.3166C24.1304 9.26509 25.3455 8.56408 26.7008 8.31872V7.25552C26.7008 6.90501 26.7709 6.5545 26.8994 6.22736C27.0396 5.90022 27.2265 5.60813 27.4836 5.35109C27.7289 5.10573 28.0327 4.90711 28.3598 4.76691C28.687 4.62671 29.0375 4.56829 29.388 4.56829L29.4114 4.5566Z" fill="#F7622C"/>
</svg>
