<svg preserveAspectRatio="none" width="100%" height="100%" overflow="visible" style="display: block;" viewBox="0 0 216 37.694" fill="none" xmlns="http://www.w3.org/2000/svg">
<g id="logo">
<path id="Vector" d="M21.0119 0.36815C20.6977 0.279973 20.3731 0.234552 20.0468 0.233112H2.81017C2.10658 0.219532 1.42153 0.45916 0.87998 0.908301C0.586924 1.1879 0.357632 1.52736 0.207739 1.90355C0.0578464 2.27974 -0.00912478 2.68381 0.0113911 3.08822V34.8029C-0.0464549 35.4077 0.117347 36.0129 0.472358 36.5061C0.827369 36.9993 1.34945 37.347 1.94158 37.4844C2.25165 37.5576 2.56882 37.5964 2.88738 37.6002H3.69806C4.28443 37.6586 4.87267 37.5089 5.35969 37.1774C5.84672 36.8458 6.20145 36.3535 6.36173 35.7868C6.44898 35.466 6.4944 35.1353 6.49684 34.8029V22.3408H15.0669C15.6792 22.4009 16.2928 22.2392 16.7959 21.8851C17.299 21.5311 17.6581 21.0082 17.8078 20.4117C17.88 20.0951 17.9188 19.7718 17.9236 19.4471V19.0227C17.9733 18.4194 17.8063 17.8182 17.4526 17.3268C17.0988 16.8354 16.5815 16.486 15.9934 16.3413C15.6766 16.2691 15.3532 16.2303 15.0283 16.2255H6.41963V6.27125H20.0468C20.648 6.32011 21.247 6.15255 21.7354 5.79879C22.2239 5.44503 22.5697 4.92838 22.7105 4.34213C22.7987 4.02815 22.8441 3.7037 22.8456 3.37757V2.95318C22.8843 2.37719 22.723 1.80549 22.389 1.33455C22.0549 0.863611 21.5685 0.522272 21.0119 0.36815Z" fill="var(--fill-0, #F7622C)"/>
<path id="Vector_2" d="M30.7207 0.36815C30.4065 0.279973 30.0819 0.234552 29.7556 0.233112H28.9449C28.2413 0.219532 27.5563 0.45916 27.0147 0.908301C26.715 1.18372 26.48 1.52199 26.3265 1.89887C26.173 2.27574 26.1048 2.6819 26.1268 3.08822V34.8029C26.0731 35.407 26.2385 36.0102 26.5929 36.5025C26.9472 36.9948 27.4669 37.3433 28.057 37.4844C28.3738 37.5566 28.6973 37.5954 29.0221 37.6002H29.8328C30.4185 37.6548 31.005 37.5036 31.4912 37.1726C31.9774 36.8416 32.3329 36.3515 32.4965 35.7868C32.5837 35.466 32.6291 35.1353 32.6316 34.8029V3.08822C32.7002 2.47985 32.5437 1.86743 32.1917 1.36638C31.8397 0.865343 31.3165 0.510291 30.7207 0.36815Z" fill="var(--fill-0, #F7622C)"/>
<path id="Vector_3" d="M61.932 4.67025C60.6884 3.20232 59.123 2.04051 57.3575 1.275C55.4578 0.428112 53.3958 0.00672165 51.316 0.0403601C49.2135 0.0100426 47.1284 0.424204 45.1973 1.2557C43.4501 2.04198 41.9103 3.22427 40.6999 4.70883C39.4995 6.19657 38.6071 7.90812 38.0748 9.74383C37.4948 11.6573 37.2084 13.6476 37.2256 15.6469V34.8031C37.17 35.391 37.3206 35.9799 37.6516 36.4691C37.9825 36.9582 38.4733 37.3172 39.0399 37.4846C39.3631 37.5578 39.693 37.5966 40.0243 37.6003H40.6999C41.285 37.6512 41.8697 37.4985 42.3551 37.168C42.8404 36.8376 43.1967 36.3497 43.3636 35.7869C43.4425 35.4645 43.4878 35.1348 43.4987 34.8031V15.6469C43.4391 13.8201 43.7818 12.0025 44.5024 10.3226C45.0623 9.05776 45.9734 7.97989 47.1275 7.21669C48.3697 6.46407 49.8067 6.09495 51.2581 6.15566C52.4429 6.12687 53.6186 6.37111 54.6938 6.86944C55.6068 7.3217 56.4003 7.98259 57.01 8.79856C57.6719 9.70261 58.1566 10.7237 58.4384 11.808C58.7729 13.0668 58.9416 14.3638 58.9402 15.6662V34.8224C58.8865 35.4264 59.0519 36.0296 59.4063 36.5219C59.7606 37.0142 60.2803 37.3627 60.8704 37.5039C61.1872 37.576 61.5107 37.6148 61.8355 37.6196H62.5883C63.1839 37.6925 63.786 37.5497 64.2853 37.217C64.7847 36.8843 65.1481 36.3838 65.3099 35.8062C65.3971 35.4855 65.4425 35.1548 65.445 34.8224V15.6662C65.4526 13.6676 65.1665 11.6787 64.5957 9.76312C64.067 7.90076 63.1603 6.16715 61.932 4.67025Z" fill="var(--fill-0, #F7622C)"/>
<path id="Vector_4" d="M94.3015 4.14928C93.0091 2.80343 91.4424 1.75081 89.7076 1.06269C87.8187 0.332459 85.807 -0.0277653 83.7819 0.00166858C82.2559 -0.00915259 80.7358 0.192126 79.2653 0.599706C76.5517 1.32074 74.1507 2.91372 72.4324 5.13313C71.5948 6.31267 70.9438 7.61397 70.5022 8.99137C69.9394 10.656 69.6653 12.4045 69.6915 14.1614V34.7451C69.6418 35.3484 69.8088 35.9497 70.1625 36.4411C70.5163 36.9325 71.0336 37.2819 71.6217 37.4266C71.9385 37.4988 72.2619 37.5375 72.5868 37.5423H73.3589C73.9446 37.597 74.531 37.4457 75.0172 37.1148C75.5034 36.7838 75.8589 36.2937 76.0225 35.729C76.1098 35.4082 76.1552 35.0775 76.1577 34.7451V25.4275H91.8308V34.7451C91.7811 35.3484 91.9481 35.9497 92.3019 36.4411C92.6556 36.9325 93.1729 37.2819 93.761 37.4266C94.0776 37.4998 94.4012 37.5386 94.7261 37.5423H95.4982C96.2007 37.5703 96.8885 37.3365 97.4284 36.8864C97.723 36.6153 97.955 36.2833 98.1083 35.9135C98.2616 35.5437 98.3326 35.1451 98.3163 34.7451V14.2193C98.3259 12.3596 98.0124 10.5124 97.3898 8.75987C96.6974 7.02244 95.6449 5.45115 94.3015 4.14928ZM75.9646 19.3122V14.2193C75.9575 13.0656 76.1401 11.9186 76.5051 10.824C76.8275 9.9028 77.333 9.05631 77.9913 8.33548C78.6662 7.64251 79.4825 7.10296 80.3848 6.75359C81.4707 6.34695 82.6224 6.14421 83.7819 6.15556C85.1971 6.12183 86.6 6.42605 87.8739 7.04296C89.0004 7.65046 89.936 8.55876 90.5762 9.66656C91.339 11.0589 91.7061 12.6333 91.6378 14.2193V19.3122H75.9646Z" fill="var(--fill-0, #F7622C)"/>
<path id="Vector_5" d="M126.922 4.66985C125.682 3.2063 124.124 2.04504 122.367 1.27459C120.474 0.425671 118.418 0.00412186 116.344 0.0399598C114.227 0.00848172 112.128 0.429422 110.187 1.27459C108.399 2.0558 106.824 3.25299 105.593 4.7663C104.399 6.25846 103.508 7.96861 102.968 9.8013C102.397 11.7168 102.111 13.7058 102.119 15.7044V34.8606C102.069 35.4639 102.236 36.0652 102.59 36.5566C102.944 37.048 103.461 37.3973 104.049 37.542C104.366 37.6152 104.689 37.654 105.014 37.6578H105.825C106.411 37.7162 106.999 37.5666 107.486 37.235C107.973 36.9034 108.328 36.4112 108.488 35.8444C108.576 35.5236 108.621 35.193 108.624 34.8606V15.7044C108.57 13.8761 108.919 12.0585 109.647 10.38C110.206 9.11523 111.117 8.03736 112.272 7.27416C113.514 6.52154 114.951 6.15242 116.402 6.21314C117.587 6.1891 118.761 6.43312 119.838 6.92692C120.748 7.3748 121.537 8.03678 122.135 8.85603C122.797 9.76008 123.281 10.7812 123.563 11.8655C123.898 13.1242 124.066 14.4213 124.065 15.7237V34.8799C124.011 35.4839 124.177 36.0871 124.531 36.5794C124.885 37.0717 125.405 37.4202 125.995 37.5613C126.312 37.6335 126.636 37.6723 126.96 37.6771H127.559C128.154 37.746 128.754 37.6015 129.252 37.2694C129.751 36.9373 130.115 36.4392 130.28 35.8637C130.359 35.5413 130.405 35.2116 130.415 34.8799V15.7237C130.423 13.725 130.137 11.7361 129.566 9.82059C129.034 7.94584 128.135 6.19516 126.922 4.66985Z" fill="var(--fill-0, #F7622C)"/>
<path id="Vector_6" d="M156.84 31.6585C156.53 31.5854 156.212 31.5466 155.894 31.5428H142.151L157.149 6.25201C157.821 5.3284 158.21 4.2291 158.268 3.08826C158.29 2.68195 158.222 2.27579 158.068 1.89891C157.915 1.52203 157.68 1.18376 157.38 0.908345C156.839 0.459204 156.154 0.219576 155.45 0.233157H137.036C136.331 0.212459 135.644 0.452942 135.106 0.908345C134.806 1.18376 134.571 1.52203 134.418 1.89891C134.264 2.27579 134.196 2.68195 134.218 3.08826V3.51267C134.161 4.11509 134.325 4.71767 134.68 5.20767C135.036 5.69767 135.557 6.04151 136.148 6.17485C136.456 6.26177 136.774 6.30719 137.094 6.30989H149.698L135.067 30.8097C134.65 31.4674 134.301 32.1654 134.025 32.8931C133.85 33.5207 133.772 34.1712 133.793 34.8223C133.74 35.4263 133.905 36.0295 134.259 36.5218C134.614 37.0141 135.133 37.3626 135.723 37.5037C136.04 37.5759 136.364 37.6147 136.689 37.6195H155.99C156.692 37.6402 157.377 37.4073 157.921 36.9636C158.212 36.6907 158.44 36.3579 158.59 35.9882C158.74 35.6185 158.808 35.2207 158.789 34.8223V34.3593C158.851 33.7487 158.687 33.1365 158.328 32.6388C157.968 32.1411 157.439 31.7923 156.84 31.6585Z" fill="var(--fill-0, #F7622C)"/>
<path id="Vector_7" d="M183.843 32.1404C183.3 31.6966 182.614 31.4637 181.913 31.4845H167.958V21.0479H178.014C178.718 21.0615 179.403 20.8219 179.944 20.3727C180.24 20.107 180.474 19.7787 180.627 19.4117C180.781 19.0447 180.851 18.6481 180.832 18.2507V17.807C180.885 17.2322 180.74 16.6566 180.42 16.1757C180.101 15.6949 179.626 15.3379 179.076 15.1641C178.722 15.0409 178.35 14.9758 177.975 14.9712H167.919V6.25159H181.43C182.032 6.30045 182.631 6.13287 183.119 5.77911C183.607 5.42535 183.953 4.90871 184.094 4.32247C184.181 4.00825 184.227 3.68395 184.229 3.35791V2.99137C184.301 2.39348 184.156 1.78964 183.819 1.29022C183.482 0.790791 182.977 0.429132 182.395 0.271319C182.081 0.184265 181.757 0.138865 181.43 0.136281H164.232C163.528 0.115583 162.84 0.356066 162.302 0.81147C162.002 1.08689 161.767 1.42516 161.614 1.80204C161.46 2.17891 161.392 2.58506 161.414 2.99137V34.7061C161.356 35.3109 161.52 35.9161 161.875 36.4093C162.23 36.9025 162.752 37.2501 163.344 37.3876C163.655 37.4595 163.972 37.4983 164.29 37.5033H181.855C182.557 37.5258 183.243 37.2927 183.785 36.8474C184.08 36.5762 184.312 36.2442 184.465 35.8745C184.618 35.5047 184.689 35.106 184.673 34.7061V34.2817C184.695 33.8863 184.633 33.4906 184.49 33.1213C184.347 32.752 184.126 32.4175 183.843 32.1404Z" fill="var(--fill-0, #F7622C)"/>
<path id="Vector_8" d="M215.093 9.74343C214.549 7.88917 213.636 6.16358 212.41 4.66985C211.17 3.2063 209.612 2.04504 207.855 1.27459C205.962 0.425671 203.906 0.00412186 201.832 0.0399598C199.73 0.00788923 197.644 0.422123 195.714 1.2553C193.926 2.0365 192.351 3.23371 191.12 4.74702C189.926 6.23918 189.035 7.94932 188.495 9.78202C187.924 11.6975 187.638 13.6865 187.645 15.6851V34.8413C187.596 35.4446 187.763 36.0458 188.116 36.5372C188.47 37.0286 188.988 37.378 189.576 37.5227C189.892 37.5959 190.216 37.6347 190.541 37.6385H191.255C191.841 37.697 192.43 37.5473 192.917 37.2157C193.404 36.8842 193.758 36.3919 193.919 35.8251C194.006 35.5044 194.051 35.1737 194.054 34.8413V15.6851C194 13.8569 194.349 12.0392 195.077 10.3607C195.637 9.09594 196.548 8.01807 197.702 7.25486C198.944 6.50224 200.381 6.13314 201.832 6.19385C203.017 6.17181 204.191 6.41572 205.268 6.90762C206.179 7.35551 206.967 8.01748 207.565 8.83674C208.227 9.74078 208.712 10.7619 208.993 11.8462C209.328 13.105 209.497 14.402 209.495 15.7044V34.8606C209.442 35.4646 209.607 36.0678 209.961 36.5601C210.316 37.0524 210.835 37.4009 211.425 37.542C211.742 37.6142 212.066 37.653 212.391 37.6578H213.143C213.738 37.7267 214.339 37.5823 214.837 37.2502C215.335 36.9181 215.7 36.4199 215.865 35.8444C215.944 35.522 215.989 35.1923 216 34.8606V15.7044C216.004 13.6828 215.698 11.6724 215.093 9.74343Z" fill="var(--fill-0, #F7622C)"/>
</g>
</svg>
