<svg width="165" height="29" viewBox="0 0 165 29" fill="none" xmlns="http://www.w3.org/2000/svg">
<path d="M16.0508 0.281287C15.8108 0.21393 15.5628 0.179233 15.3135 0.178133H2.14666C1.60919 0.167759 1.08589 0.350808 0.672207 0.693902C0.448345 0.907483 0.273191 1.16679 0.15869 1.45416C0.0441882 1.74153 -0.00697032 2.0502 0.00870151 2.35911V26.5856C-0.0354863 27.0476 0.0896403 27.5099 0.360829 27.8867C0.632018 28.2634 1.03083 28.529 1.48315 28.634C1.72001 28.6899 1.96229 28.7195 2.20564 28.7224H2.82491C3.27283 28.767 3.72218 28.6527 4.09421 28.3994C4.46624 28.1462 4.73722 27.7701 4.85965 27.3372C4.92631 27.0922 4.961 26.8396 4.96287 26.5856V17.066H11.5094C11.9772 17.1119 12.4459 16.9883 12.8302 16.7179C13.2145 16.4474 13.4888 16.048 13.6032 15.5923C13.6583 15.3505 13.688 15.1035 13.6916 14.8555V14.5313C13.7296 14.0704 13.602 13.6112 13.3318 13.2358C13.0616 12.8604 12.6664 12.5935 12.2172 12.483C11.9752 12.4278 11.7281 12.3982 11.48 12.3945H4.90389V4.7906H15.3135C15.7728 4.82792 16.2303 4.69992 16.6034 4.42969C16.9766 4.15946 17.2407 3.76479 17.3483 3.31697C17.4157 3.07712 17.4504 2.82928 17.4515 2.58015V2.25596C17.4811 1.81597 17.3579 1.37925 17.1027 1.01951C16.8475 0.659764 16.476 0.399019 16.0508 0.281287Z" fill="#F7622C"/>
<path d="M23.4672 0.281287C23.2272 0.21393 22.9792 0.179233 22.73 0.178133H22.1107C21.5732 0.167759 21.0499 0.350808 20.6362 0.693902C20.4073 0.904291 20.2278 1.16269 20.1105 1.45058C19.9933 1.73848 19.9412 2.04874 19.958 2.35911V26.5856C19.917 27.0471 20.0433 27.5079 20.314 27.8839C20.5847 28.26 20.9817 28.5262 21.4324 28.634C21.6744 28.6891 21.9215 28.7187 22.1697 28.7224H22.7889C23.2364 28.7641 23.6843 28.6486 24.0557 28.3958C24.4271 28.1429 24.6987 27.7686 24.8237 27.3372C24.8903 27.0922 24.925 26.8396 24.9269 26.5856V2.35911C24.9793 1.89439 24.8598 1.42657 24.5909 1.04383C24.322 0.661087 23.9223 0.389867 23.4672 0.281287Z" fill="#F7622C"/>
<path d="M47.3092 3.56755C46.3592 2.44622 45.1634 1.55873 43.8147 0.973955C42.3636 0.32703 40.7884 0.00513461 39.1997 0.0308306C37.5936 0.00767147 36.0008 0.324045 34.5257 0.959215C33.1911 1.55984 32.0148 2.46298 31.0902 3.59702C30.1732 4.73349 29.4916 6.04092 29.0849 7.4432C28.6418 8.90488 28.4231 10.4253 28.4362 11.9525V26.5857C28.3937 27.0348 28.5088 27.4846 28.7616 27.8583C29.0144 28.232 29.3893 28.5062 29.8222 28.634C30.069 28.69 30.3211 28.7196 30.5741 28.7225H31.0902C31.5371 28.7613 31.9838 28.6447 32.3546 28.3923C32.7253 28.1398 32.9975 27.7671 33.1249 27.3372C33.1852 27.091 33.2198 26.8391 33.2282 26.5857V11.9525C33.1827 10.557 33.4444 9.16857 33.9949 7.8853C34.4226 6.91912 35.1185 6.09575 36.0001 5.51275C36.9491 4.93783 38.0468 4.65586 39.1555 4.70224C40.0606 4.68025 40.9586 4.86682 41.78 5.24749C42.4774 5.59296 43.0836 6.09781 43.5493 6.72112C44.055 7.41171 44.4252 8.19174 44.6404 9.01999C44.8959 9.98156 45.0248 10.9723 45.0238 11.9673V26.6004C44.9828 27.0619 45.1091 27.5226 45.3798 27.8987C45.6505 28.2747 46.0475 28.541 46.4982 28.6488C46.7402 28.7039 46.9873 28.7335 47.2355 28.7372H47.8105C48.2655 28.7929 48.7254 28.6838 49.1069 28.4297C49.4883 28.1755 49.7659 27.7932 49.8895 27.352C49.9561 27.1069 49.9908 26.8543 49.9927 26.6004V11.9673C49.9985 10.4405 49.7799 8.92119 49.3439 7.45794C48.9401 6.0353 48.2474 4.71102 47.3092 3.56755Z" fill="#F7622C"/>
<path d="M72.0358 3.16959C71.0486 2.14151 69.8518 1.33743 68.5266 0.811777C67.0838 0.253962 65.547 -0.0212096 64.0001 0.00127461C62.8344 -0.00699156 61.6732 0.146763 60.5499 0.458108C58.477 1.0089 56.6429 2.22576 55.3303 3.92114C54.6905 4.82218 54.1932 5.81623 53.8558 6.86841C53.426 8.14002 53.2165 9.47566 53.2366 10.8177V26.5414C53.1986 27.0023 53.3262 27.4616 53.5964 27.8369C53.8666 28.2123 54.2617 28.4792 54.711 28.5898C54.953 28.6449 55.2001 28.6745 55.4482 28.6782H56.038C56.4854 28.7199 56.9334 28.6044 57.3048 28.3515C57.6762 28.0987 57.9478 27.7244 58.0728 27.293C58.1394 27.0479 58.1741 26.7953 58.176 26.5414V19.4238H70.1485V26.5414C70.1106 27.0023 70.2381 27.4616 70.5084 27.8369C70.7786 28.2123 71.1737 28.4792 71.623 28.5898C71.8648 28.6457 72.112 28.6753 72.3602 28.6782H72.95C73.4866 28.6995 74.012 28.521 74.4245 28.1771C74.6495 27.97 74.8267 27.7164 74.9438 27.4339C75.0609 27.1515 75.1151 26.8469 75.1027 26.5414V10.862C75.11 9.44137 74.8706 8.03029 74.395 6.69157C73.866 5.36436 73.062 4.16407 72.0358 3.16959ZM58.0285 14.7523V10.862C58.0231 9.98066 58.1626 9.10445 58.4414 8.26836C58.6876 7.56464 59.0738 6.91801 59.5767 6.36738C60.0922 5.83803 60.7158 5.42588 61.405 5.15899C62.2345 4.84836 63.1143 4.6935 64.0001 4.70217C65.0811 4.6764 66.1527 4.90879 67.1259 5.38004C67.9864 5.8441 68.7011 6.53794 69.1901 7.38418C69.7728 8.44779 70.0533 9.65046 70.0011 10.862V14.7523H58.0285Z" fill="#F7622C"/>
<path d="M96.9541 3.56717C96.0069 2.44918 94.8167 1.5621 93.4744 0.973572C92.029 0.325088 90.4583 0.00307205 88.8741 0.0304483C87.257 0.0064025 85.6533 0.327954 84.1706 0.973572C82.8048 1.57032 81.6016 2.48484 80.6614 3.64084C79.7496 4.78069 79.0685 6.08705 78.6561 7.48703C78.2202 8.95028 78.0016 10.4696 78.0074 11.9964V26.6295C77.9694 27.0904 78.097 27.5497 78.3672 27.9251C78.6374 28.3004 79.0326 28.5673 79.4818 28.6779C79.7237 28.7338 79.9709 28.7634 80.2191 28.7663H80.8383C81.2863 28.8109 81.7356 28.6966 82.1076 28.4433C82.4797 28.1901 82.7507 27.814 82.8731 27.3811C82.9397 27.136 82.9744 26.8834 82.9763 26.6295V11.9964C82.9355 10.5998 83.2022 9.21126 83.7578 7.92912C84.1855 6.96295 84.8814 6.13958 85.763 5.55657C86.7119 4.98165 87.8096 4.69969 88.9183 4.74607C89.8231 4.72771 90.7204 4.91411 91.5429 5.29132C92.2384 5.63345 92.8405 6.13913 93.2975 6.76495C93.8031 7.45554 94.1733 8.23556 94.3886 9.06381C94.6441 10.0254 94.773 11.0162 94.7719 12.0111V26.6443C94.7309 27.1057 94.8573 27.5665 95.1279 27.9425C95.3986 28.3186 95.7956 28.5848 96.2464 28.6926C96.4884 28.7477 96.7354 28.7774 96.9836 28.781H97.4407C97.8952 28.8337 98.3537 28.7233 98.7345 28.4696C99.1152 28.2159 99.3935 27.8354 99.5197 27.3958C99.58 27.1495 99.6145 26.8977 99.6229 26.6443V12.0111C99.6287 10.4843 99.4101 8.96502 98.9741 7.50177C98.5677 6.06966 97.8811 4.73234 96.9541 3.56717Z" fill="#F7622C"/>
<path d="M119.808 24.1836C119.571 24.1277 119.329 24.098 119.086 24.0951H108.588L120.044 4.77581C120.558 4.07028 120.855 3.23053 120.899 2.35906C120.916 2.04868 120.864 1.73842 120.747 1.45053C120.629 1.16263 120.45 0.904233 120.221 0.693844C119.807 0.35075 119.284 0.167701 118.747 0.178075H104.68C104.142 0.162264 103.617 0.345966 103.206 0.693844C102.977 0.904233 102.797 1.16263 102.68 1.45053C102.563 1.73842 102.511 2.04868 102.528 2.35906V2.68326C102.484 3.14344 102.61 3.60374 102.881 3.97805C103.152 4.35235 103.551 4.61501 104.002 4.71687C104.237 4.78327 104.48 4.81796 104.724 4.82002H114.353L103.176 23.5352C102.858 24.0376 102.591 24.5708 102.38 25.1267C102.247 25.6061 102.187 26.103 102.203 26.6003C102.162 27.0617 102.288 27.5225 102.559 27.8986C102.83 28.2746 103.227 28.5409 103.678 28.6487C103.92 28.7038 104.167 28.7334 104.415 28.7371H119.159C119.695 28.7529 120.219 28.575 120.634 28.236C120.856 28.0276 121.031 27.7733 121.145 27.491C121.26 27.2086 121.312 26.9047 121.297 26.6003V26.2466C121.345 25.7802 121.219 25.3126 120.945 24.9324C120.67 24.5522 120.266 24.2857 119.808 24.1836Z" fill="#F7622C"/>
<path d="M140.436 24.5518C140.021 24.2128 139.497 24.0349 138.961 24.0507H128.301V16.0784H135.983C136.52 16.0888 137.044 15.9057 137.457 15.5626C137.684 15.3596 137.862 15.1089 137.979 14.8285C138.097 14.5481 138.15 14.2452 138.136 13.9416V13.6027C138.176 13.1636 138.065 12.7239 137.821 12.3566C137.577 11.9893 137.215 11.7166 136.794 11.5838C136.524 11.4897 136.24 11.4399 135.953 11.4364H128.272V4.77562H138.593C139.052 4.81295 139.51 4.68494 139.883 4.4147C140.256 4.14447 140.52 3.74982 140.628 3.30199C140.694 3.06196 140.729 2.81424 140.731 2.56517V2.28518C140.786 1.82846 140.675 1.3672 140.417 0.98569C140.16 0.604183 139.774 0.327916 139.33 0.207365C139.09 0.140865 138.842 0.106184 138.593 0.104211H125.455C124.917 0.0884001 124.392 0.272102 123.981 0.61998C123.752 0.830369 123.572 1.08877 123.455 1.37666C123.338 1.66455 123.286 1.9748 123.303 2.28518V26.5117C123.258 26.9737 123.384 27.436 123.655 27.8128C123.926 28.1895 124.325 28.4551 124.777 28.5601C125.014 28.615 125.256 28.6446 125.5 28.6485H138.917C139.453 28.6656 139.977 28.4876 140.392 28.1474C140.617 27.9403 140.794 27.6867 140.911 27.4042C141.028 27.1217 141.082 26.8172 141.07 26.5117V26.1875C141.087 25.8854 141.039 25.5832 140.93 25.3011C140.821 25.019 140.652 24.7635 140.436 24.5518Z" fill="#F7622C"/>
<path d="M164.307 7.44282C163.891 6.02637 163.194 4.70822 162.257 3.56717C161.31 2.44918 160.12 1.5621 158.778 0.973572C157.332 0.325088 155.762 0.00307206 154.177 0.0304483C152.571 0.0059499 150.978 0.322378 149.503 0.958833C148.138 1.55558 146.934 2.47012 145.994 3.62612C145.082 4.76597 144.401 6.07232 143.989 7.4723C143.553 8.93555 143.334 10.4549 143.34 11.9816V26.6148C143.302 27.0756 143.43 27.5349 143.7 27.9103C143.97 28.2857 144.365 28.5526 144.815 28.6631C145.056 28.719 145.304 28.7487 145.552 28.7516H146.097C146.545 28.7962 146.995 28.6819 147.367 28.4286C147.739 28.1753 148.01 27.7993 148.132 27.3663C148.199 27.1213 148.233 26.8687 148.235 26.6148V11.9816C148.194 10.585 148.461 9.19652 149.017 7.91438C149.445 6.94821 150.14 6.12484 151.022 5.54183C151.971 4.96691 153.069 4.68496 154.177 4.73134C155.082 4.7145 155.979 4.90082 156.802 5.27658C157.497 5.61871 158.1 6.12439 158.557 6.75021C159.062 7.4408 159.432 8.22083 159.648 9.04908C159.903 10.0107 160.032 11.0014 160.031 11.9963V26.6295C159.99 27.091 160.116 27.5517 160.387 27.9278C160.658 28.3038 161.055 28.5701 161.505 28.6779C161.747 28.733 161.994 28.7626 162.243 28.7663H162.818C163.272 28.8189 163.731 28.7086 164.111 28.4549C164.492 28.2012 164.77 27.8207 164.897 27.3811C164.957 27.1348 164.992 26.8829 165 26.6295V11.9963C165.003 10.452 164.769 8.91633 164.307 7.44282Z" fill="#F7622C"/>
</svg>
